<?xml version="1.0" standalone="no"?>
<!DOCTYPE svg PUBLIC "-//W3C//DTD SVG 1.1//EN" "http://www.w3.org/Graphics/SVG/1.1/DTD/svg11.dtd" >
<svg>
<metadata>
Created by FontForge 20090914 at Wed Oct 31 12:44:38 2018
 By www-data
Quaxy
</metadata>
<defs>
<font id="Quaxy-Bold-Italic" horiz-adv-x="553" >
  <font-face 
    font-family="Quaxy"
    font-weight="700"
    font-style="italic"
    font-stretch="normal"
    units-per-em="1000"
    panose-1="2 0 0 0 0 0 0 0 0 0"
    ascent="800"
    descent="-200"
    x-height="477"
    cap-height="737"
    bbox="-13 -264 986 766"
    underline-thickness="50"
    underline-position="-55"
    slope="-12.0011"
    unicode-range="U+0020-U+2019"
  />
<missing-glyph horiz-adv-x="575" 
d="M40 0v656h495v-656h-495zM80 40h415v576h-415v-576z" />
    <glyph glyph-name=".notdef" horiz-adv-x="575" 
d="M40 0v656h495v-656h-495zM80 40h415v576h-415v-576z" />
    <glyph glyph-name="space" unicode=" " horiz-adv-x="133" 
 />
    <glyph glyph-name="exclam" unicode="!" horiz-adv-x="236" 
d="M199 23l-9 14l-25 -38l-38 24l-24 -38l-35 9l-31 51l10 -14l25 37l35 -9l49 15l-10 -12l45 -4zM137 619l-16 -39l32 -32l-16 -32l-16 -19l31 -33l-33 -31l31 -32l-33 -32l32 -32l-33 -32l31 -32l-33 -32l31 -32l-32 -32l31 -32l-17 -32l-35 -3l-51 2l16 26l-31 32l32 32
l-31 32l16 32v47l14 30l-34 29l30 34l-34 30l30 34l-34 30l30 34l-34 30l14 33v16l49 -13l30 33z" />
    <glyph glyph-name="quotedbl" unicode="&#x22;" horiz-adv-x="258" 
d="M39 553l6 -15l26 38l34 -10l-16 -15l32 -32l-32 -32l32 -32l-32 -32l32 -32l-32 -32l32 -32l-16 -32l-12 15l-28 -36l-34 12l2 19l17 24l-30 34l34 30l-31 34l18 31l16 4l-33 31l15 32v28zM168 553l6 -15l26 38l34 -10l-16 -15l32 -32l-32 -32l32 -32l-32 -32l32 -32
l-32 -32l32 -32l-16 -32l-12 15l-28 -36l-34 12l2 19l17 24l-30 34l34 30l-31 34l18 31l16 3l-32 32l16 32z" />
    <glyph glyph-name="numbersign" unicode="#" horiz-adv-x="506" 
d="M211 318l39 -16l32 32l32 -16h16l-25 38l38 25l-25 38l22 28l2 20l16 -13l26 38l34 -10l-21 -22l23 -38l-38 -24l24 -38l-23 -28l-2 -12h14l32 1h7l43 2l-18 1l12 -44l-30 -20l-10 16l-32 -32l-32 16l-18 -8l24 -38l-23 -28h7l10 2l16 -16l32 33l32 -16l-17 2l13 -43
l-29 -21l-14 16l-32 -32l-32 16l-2 -6l-12 -53l-20 -18l26 -37l-21 -29l-15 13l-25 -37l-35 9l11 35l22 23l-22 39l23 27l4 16l1 18h-21l-21 -2h-63l-19 -12l26 -38l-38 -25l26 -38l-22 -28l-15 13l-25 -37l-35 9l11 35l22 23l-22 39l23 27l2 14l4 18l-30 -2h-58l17 -1
l-14 42l28 22l6 -16l32 32l32 -16l18 8l-23 39l23 27l-33 -2h-57l16 -4l-14 43l29 21l6 -16l32 32l32 -16l12 59l21 24l-26 37l21 29l16 -13l26 38l34 -10l-21 -22l23 -38l-38 -24l24 -38l-23 -28zM197 260l-19 -10l23 -39l-23 -27l24 -16l32 32l32 -16l19 2l18 8l-23 39
l23 27h-22l-21 -1h-31z" />
    <glyph glyph-name="dollar" unicode="$" horiz-adv-x="758" 
d="M432 683v1l23 -4l9 44l35 5l-9 -62l3 -25l45 1l1 -45l45 1l1 -46l45 1l1 -45l45 1l12 -34l-21 16l-32 -33l-32 15l-33 25l-39 -23l-27 24l4 21l-44 6l-7 35l-20 -14l24 -39l-39 -23l23 -39l-23 -27v-5v-6l56 -32l39 23l23 -40l39 23l22 -40l40 23l22 -40l39 23l27 -24
l-35 -37l15 -42l-43 -16l16 -42l-43 -15l15 -43l-28 -22l-20 7l-10 -44l-44 10l-11 -44l-44 11l-10 -44l-36 -3l-55 -9l-16 -4l35 -29l-13 -33l-34 2h-9l-28 32l-5 30l-4 20l-42 -15l-15 43l-43 -15l-15 43l-42 -14l-22 28l-22 61l-44 9l9 45l-45 8l-4 36l61 -16l32 32
l32 -16h41l9 -23l19 -48l45 -5l-5 -45l45 -4l8 -35v12v11l18 54l-31 34l17 31l17 10l-31 34l18 31l-27 22l-38 -25l-25 38l-38 -25l-24 38l-38 -24l-25 38l-38 -25l-28 22l-35 5l33 49l-20 40l41 20l-20 41l25 25l49 19l5 45l45 -5l5 45l35 7l61 -4l25 38l38 -25l24 38
l35 -9zM402 282v1l-4 -42l-18 -35l29 -34l-18 -31l-16 -4l35 -29l-13 -33l52 32l-1 45l45 1l-2 46l34 12l-18 34l-45 -7l-16 32l-18 5zM404 599v1l-52 28l-43 -33l8 -45l-45 -7l8 -45l-45 -8l8 -44l-32 -17l12 -17l35 29l29 -35l34 30l31 -19l32 55l-22 39l40 22l-22 40z
" />
    <glyph glyph-name="percent" unicode="%" horiz-adv-x="848" 
d="M789 710v1l-47 -25l1 -45l-34 -12l-30 -9l3 -45l-46 -3l3 -45l-45 -3l2 -45l-33 -13l-32 -14l6 -45l-45 -6l5 -45l-45 -5l5 -45l-32 -15l-38 -26l8 -45l-44 -7l7 -45l-31 -17l-46 -41l10 -44l-45 -10l10 -44l-31 -18l-53 18l-34 -31l-30 34l-34 -31l-31 17l56 34l-1 46
h46l-1 45l34 12l49 28l-1 45l45 1l-1 45l34 12l47 30l-4 45l45 3l-3 45l33 14l43 32l-8 45l45 8l-8 44l32 17l37 37l-13 43l43 14l-14 43l29 21l54 -16l32 32l32 -32l32 32zM609 349v1l1 -1h1l32 -4l-1 -22h46l-1 -45l46 -1v-45h45l11 -34l2 -20v-3l-40 -21l3 -46l-45 -2
l2 -46l-45 -2l3 -46l-33 -13l-34 -5l-50 8l-6 30l-45 2l3 46l-46 2l3 45l-45 3l-10 34v3l45 25l-2 45l45 1l-1 46l45 1l-2 45l34 13zM604 300v1l-22 -6l13 -43l-43 -13l12 -44l-29 -20v-8l-7 -21l43 -13l-14 -44l43 -13l1 -36l22 9l-14 43l43 15l-15 42l29 22l8 21l-43 15
l15 42l-43 15zM221 714v1l3 -1l36 -5l8 -32l46 -1l-1 -45l45 -1l-1 -45l45 -1l11 -34l1 -16l-2 -23l-43 -21l1 -45h-46l1 -46h-46l1 -45l-34 -12l-27 -3h-1h-1l-21 39l-45 -4l-3 45l-45 -3l-4 45l-45 -4l-14 33l-5 34l2 21l40 18v46h45l-1 45l46 1l-1 45l34 12zM225 663v1
l-3 -1l-17 1l13 -43l-44 -13l13 -43l-29 -21l-2 -35l42 -16l-16 -42l43 -16l-2 -36l25 13l-14 43l42 15l-14 43l29 21l7 22l-44 14l14 43l-43 14v36z" />
    <glyph glyph-name="ampersand" unicode="&#x26;" horiz-adv-x="768" 
d="M320 645v1l7 -1h7l1 -16l35 28l30 -19l19 -31l45 9l9 -44l45 10l9 -44l45 10l18 -31l-32 16l-32 -32l-32 32l-32 -32l-32 16l-26 31l-15 29l-45 -10l-18 31l-38 -9l-16 6l2 -46l-45 -2l3 -46l-33 -13v-3l32 -49l45 3l3 -45l45 3l14 -33l-53 -33l-35 -17l4 -45l-45 -4
l4 -45l-33 -14l-8 -15l45 -4l-5 -45l45 -5l-4 -45l45 -4l8 -35l47 24l1 45h45v45h46v45l34 11l17 51l-22 2l-2 16l-28 -35l-34 12l-6 46l26 -12l26 37l37 -26l26 37l34 -10l50 -21l35 28l30 -19l11 -24l44 12l20 -29l-5 15l-24 -38l-35 8l-25 1l-36 -26l10 -44l-44 -10
l10 -45l-44 -9l10 -45l-31 -18l-25 7l-19 -41l-41 19l-19 -42l-41 19l-18 -42l-36 4l-11 -1h-12l-36 3l-34 33l-42 -16l-16 43l-43 -16l-22 28l-12 43l-44 7l7 45l-45 7l-6 35l49 16l7 44l45 -7l7 45l45 -7l7 44l35 6l-14 30l-44 -7l-7 44l-45 -7l-7 45l-45 -7l-16 32
l11 -12l7 45l45 -8l8 45l44 -7l8 44l44 -7l8 44l35 6l18 -13l27 36z" />
    <glyph glyph-name="parenleft" unicode="(" horiz-adv-x="203" 
d="M172 563l-4 -16l-22 -21l23 -39l-24 -27l-17 -6l29 -35l-36 -28l29 -36l-35 -28l28 -35l-35 -29l28 -35l-19 -30l-14 -42l34 -30l-30 -34l34 -30l-31 -34l34 -30l-14 -33l-9 -28l39 -22l-22 -39l39 -23l-7 -35l-25 38l-45 -7l-16 32l13 10l-40 21l20 40l-40 21l5 35
l11 64l-34 29l29 34l-34 30l13 33h16l-28 36l36 27l-28 36l36 28l-28 36l36 28l-28 35l20 30l25 4l-1 45l45 1l-2 46l34 12z" />
    <glyph glyph-name="parenright" unicode=")" horiz-adv-x="203" 
d="M8 -182l29 52l-24 38l39 24l-24 39l23 27l20 56l-30 34l34 30l-29 34l18 31l14 45l-34 30l30 34l-34 30l30 34l-33 30l14 33l9 26l-39 23l23 39l-39 23l7 35l24 -37l45 8l17 -31l-13 -14l41 -21l-21 -40l40 -21l-6 -35l-12 -64l34 -30l-29 -34l34 -30l-14 -33l-16 -3
l28 -35l-36 -28l28 -36l-36 -28l28 -36l-35 -28l28 -35l-20 -30l-24 -2l1 -46l-45 -1l1 -45l-34 -12h-12z" />
    <glyph glyph-name="asterisk" unicode="*" horiz-adv-x="303" 
d="M139 435v1l-63 6l1 16l-34 -30l-31 18l18 3l-22 40l25 26l47 -35l39 -24l22 -13l1 64l-39 23l8 35l28 -2h9l36 2l-13 -36l-22 -21l23 -39l-24 -27l49 30l41 26l20 14l-13 -13l40 -22l-6 -35l-31 1l-7 -1l-28 14l-30 -34l-33 13l43 -36l-5 -17l45 5l15 -33l-53 -35l-10 62
l-42 16l2 36l-15 5l18 -41l-42 -19l19 -41l-27 -24l-26 27l-33 16l30 22l30 4l5 45z" />
    <glyph glyph-name="plus" unicode="+" horiz-adv-x="508" 
d="M266 240h39l13 -16l31 33l32 -31l32 33l32 -15l8 1h-18l11 -44l-30 -19l-24 16l-32 -32l-32 32l-32 -32l-32 16v-26h-16l31 -33l-17 -31v-11l-16 -21l33 -32l-15 -32l-17 10l-16 -42l-36 1l17 13l-31 34l18 31l2 52l16 21l-32 32l16 32l-53 15l-32 -32l-32 32l-32 -33
l-32 16l17 -2l-15 43l29 21l24 -16l32 32l32 -32l32 32l32 -16v41l16 14l-33 31l31 32l-33 32l15 32l18 -10l17 42l36 -3v-58l-16 -11l31 -32l-17 -32v-39z" />
    <glyph glyph-name="comma" unicode="," horiz-adv-x="361" 
d="M232 138v1l17 -17l34 31l31 -18l-42 -26l4 -45l-45 -4l4 -45l-45 -4l5 -45l-45 -5l4 -45l-33 -14l-5 20l-43 -16l-22 28l43 23l-2 45l45 2l-2 45l45 2l-1 45l33 13z" />
    <glyph glyph-name="hyphen" unicode="-" horiz-adv-x="338" 
d="M35 254l42 -16l32 32l32 -32l32 32l32 -16h46l50 5l6 1l-14 -47l-23 16l-32 -32l-32 32l-32 -32l-32 32l-32 -32l-32 16l-35 -2l-16 -2z" />
    <glyph glyph-name="period" unicode="." horiz-adv-x="260" 
d="M102 98l43 -43l44 12l20 -30l-25 4l-11 -44l-36 -3l-36 44l-45 -8l-17 31l16 -9l11 44z" />
    <glyph glyph-name="slash" unicode="/" horiz-adv-x="406" 
d="M396 566l-21 -45l-38 -44l16 -43l-28 -22l-18 -1l16 -42l-42 -16l15 -42l-42 -16l16 -43l-28 -22l-18 -1l17 -42l-42 -16l16 -42l-42 -17l16 -42l-27 -23l-18 -1l19 -42l-42 -18l19 -41l-42 -19l18 -41l-26 -24l-40 -1l-15 -43l-36 1l17 37l30 29l-16 42l27 23l20 5
l-17 42l42 17l-17 42l42 17l-16 42l27 23l20 7l-17 41l42 18l-18 41l42 18l-17 42l27 23l20 7l-19 41l41 19l-19 41l42 18l-19 42l26 24l55 7l16 42z" />
    <glyph glyph-name="zero" unicode="0" horiz-adv-x="633" 
d="M594 249v1l-26 -18l16 -43l-42 -16l16 -42l-42 -16l16 -42l-28 -23l-9 14l-22 -39l-40 22l-22 -39l-39 22l-23 -39l-35 7h-17l-17 16l-32 -31l-32 17l-44 37l-42 -16l-16 42l-42 -16l-23 28l11 18l-39 22l22 40l-40 22l7 35l1 24l22 4l-10 44l44 10l-9 44l44 10l-9 44
l44 10l-10 44l31 18l50 -11l29 36l35 -29l28 35l34 -12l35 -24l38 25l25 -38l38 24l28 -22l-2 -33l43 -15l-15 -43l43 -15l-15 -42l43 -15zM469 228v1l-6 52l-21 44l-45 1l1 45l-46 1l1 45l-45 1l-11 34l-53 -37l4 -45l-45 -4l3 -45l-45 -4l4 -45l-33 -14l-1 -23l-6 -30
l40 -20l-19 -41l41 -20l-5 -35l44 -40l43 14l21 -29h3l16 -6l-2 45l45 2l-2 45l45 2l-2 46l45 2l-2 45z" />
    <glyph glyph-name="one" unicode="1" horiz-adv-x="453" 
d="M66 475l6 2l44 -15l32 32l32 -15l11 -16l30 34l34 -31l30 34l33 -15l-22 -50l28 -36l-35 -28l28 -35l-20 -30l-18 -52l31 -33l-34 -30l31 -34l-33 -30l30 -34l-17 -31l12 -16l31 33l32 -31l32 33l32 -15l-18 -3l17 -42l-27 -23l-55 16l-32 -32l-32 32l-32 -32l-32 32
l-32 -32l-32 32l-32 -32l-32 32l-32 -32l-32 16l21 4l-13 44l30 20l39 -17l32 31l32 -17l17 8l-29 35l35 29l-29 35l35 29l-29 35l19 30l14 25l-35 29l29 35l-34 29l13 33l-20 1l-52 13l-30 -34l-33 14l18 1l-15 43z" />
    <glyph glyph-name="two" unicode="2" horiz-adv-x="541" 
d="M287 52v1l61 -11l29 35l33 -13l21 -13l27 37l34 -11l22 5l-27 -19l16 -43l-28 -22l-2 16l-32 -32l-32 32l-32 -32l-32 32l-32 -32l-32 32l-32 -32l-32 32l-32 -32l-32 32l-32 -32l-32 32l-32 -32l-32 16l12 27l50 7l15 42l42 -14l15 42h36l46 21l2 45l45 -1l2 45l34 10
l-27 -9l-16 13l-26 -38l-34 10l-29 55l-45 2l2 46l-45 2l-10 34l17 -5v45h45l-1 46h46l-1 45l34 12l37 3l30 1l56 -4l35 -55l45 1l1 -45l46 2l12 -34l-3 -33l-18 -2l15 -42l-43 -15l15 -43l-28 -22l-19 4l-1 -45l-45 1l-1 -45l-46 1l-1 -46zM273 239v1l38 18l-1 45l45 1
l-2 46l34 12l-27 53l-45 3l-10 34l-33 -15l5 -45l-45 -5l5 -45l-32 -15l16 -47l45 -6z" />
    <glyph glyph-name="three" unicode="3" horiz-adv-x="496" 
d="M488 468v1l-13 10l-3 -45l-34 -10l-12 10l-1 -45l-34 -11l-45 -24l2 -46l-45 -1l2 -45l-34 -13l47 -9l20 -44h45v-45l45 -1l11 -34l-31 -10l2 -45l-45 -2l2 -45l-45 -2l1 -45l-33 -13l-14 14l-27 -36l-34 11l-19 16l-32 -31l-32 17l-39 23l-37 -26l-29 21l20 16l-24 38
l22 28l10 -10l16 -24l41 18l18 -42l42 17l23 -27l35 12v45h45v46l34 11l-16 34l-45 -3l-4 45l-45 -4l-14 33l-52 6l-24 -38l-35 9l-19 -5l-10 21l48 19l3 45l45 -4l4 46l35 8l36 18l-3 45l45 4l-4 45l33 14l-17 1l-12 16l-30 -34l-33 15l-63 9l-28 -35l-34 12l-15 1l22 7
l-11 43l30 20l32 -16l32 32l32 -32l32 32l32 -32l32 32l32 -16l7 -17l35 30l29 -35l34 30l31 -19z" />
    <glyph glyph-name="four" unicode="4" horiz-adv-x="609" 
d="M453 494v-35l-16 -12l31 -32l-16 -32l-16 -11l31 -32l-17 -32l-16 -23l31 -32l-33 -32l32 -32l-17 -32l-4 -61v-10h8l2 -16l31 33l32 -15l1 -16l30 33l33 -14l-18 -9l24 -38l-22 -28l-57 16l-32 -32l-32 16l-17 -17l31 -34l-18 -31l-16 -5l31 -32l-16 -32l-2 -11l-58 17
l-32 -31l-32 17l2 10l17 5l-29 35l20 30l17 14l-31 34l18 31l-19 15l-32 -32l-32 31l-32 -33l-32 15l-28 16l-32 -32l-32 31l-32 -32l-32 16l47 42l-9 44l44 9l-9 44l45 9l-9 45l44 9l-9 44l45 9l-9 44l44 9l-9 45l44 9l-8 44l44 9l-9 44l31 18l42 -14l30 33l33 -14z
M332 378v1l-30 -43l-27 -14l11 -44l-44 -10l11 -44l-44 -11l10 -44l-44 -11l11 -44l-30 -19l22 -18l35 28l29 -35l35 28l30 -19h25v7l16 3l-29 34l18 31l-1 58l-2 57v42l-1 49z" />
    <glyph glyph-name="five" unicode="5" horiz-adv-x="576" 
d="M426 482l18 -63l43 -12l-11 -44l43 -12l-12 -43l44 -12l2 -36l-50 17l-32 -32l-32 17l4 24l-45 10l-3 36l-13 24l-27 47l-14 8l5 -45l-45 -6l5 -45l-45 -5l5 -45l-32 -15l14 -23l42 16l23 -27l-7 -17l44 -8l-7 -44l44 -8l6 -35l-17 2l12 -44l-43 -12l12 -44l-29 -20
l-50 4l-23 -39l-39 23l-23 -39l-35 8l-56 21l-34 -30l-31 19l15 29l-34 30l15 33l14 -10l24 -32l44 13l20 -30l25 -2l44 23l-1 45l45 1l-1 45l34 12l-13 34l-46 -2l-2 45l-45 -2l-13 33l-14 13l-23 -39l-35 8l-8 9l24 6l-7 45l45 6l-7 45l45 7l-7 45l45 6l-7 45l45 7l-7 45
l32 16l15 -16l32 32l32 -32l32 32z" />
    <glyph glyph-name="six" unicode="6" horiz-adv-x="541" 
d="M512 579v1l-18 -4l-14 12l-19 -42l-41 19l-18 -42l-36 4l-22 5l-9 -45l-45 10l-9 -45l-44 9l-9 -44l-36 -4l-16 4l17 -42l-43 -17l17 -42l-43 -16l17 -42l-28 -23l18 -46l45 -3l-3 -45l45 -4l-4 -45l45 -3l9 -35l12 -10l-3 45l45 3l-4 45l46 4l-4 45l33 14l-4 27l-45 -1
l-1 45h-45v45h-45l-12 34l-14 14l-24 -38l-35 9l10 28l56 3l20 40l41 -19l20 41l35 -5l12 -38l45 -3l-3 -45l45 -3l-3 -45l45 -3l9 -35l-5 -41l-16 5l5 -45l-45 -5l6 -45l-45 -6l5 -45l-32 -15l-20 -12l-53 -1l-20 -40l-40 20l-21 -40l-35 5l-4 20l-43 -14l-14 43l-43 -14
l-21 29l7 26l-41 19l19 41l-41 19l4 36l-1 19l23 17l-19 41l41 19l-20 41l41 19l-19 41l26 25l28 4l2 45l45 -2l2 45l45 -2l3 45l34 10l55 18l8 45l35 5l16 11l21 -6l14 -22l41 19l18 -42l42 19z" />
    <glyph glyph-name="seven" unicode="7" horiz-adv-x="475" 
d="M443 482l-29 -15l11 -44l-31 -19l-32 -47h-19l10 -44l-44 -10l10 -44l-44 -10l11 -44l-31 -19l-18 -2l17 -41l-42 -18l18 -42l-42 -17l17 -42l-27 -23l-17 15l-30 -33l-33 15l-28 16l-32 -32l-32 16l19 23l33 18l-8 45l45 7l-8 45l45 8l-8 44l32 17l30 22l-14 43l43 14
l-13 43l43 14l-14 43l29 21l-31 18l-34 -31l-31 18l-14 -1l-54 12l-30 -34l-33 14l-27 -3l10 16l9 25l26 42l10 -2l17 -16l33 31l31 -33l32 31l32 -33l32 31l32 -17l26 -16l32 33l32 -16l5 -16l30 34l33 -14z" />
    <glyph glyph-name="eight" unicode="8" horiz-adv-x="484" 
d="M346 268v-27l44 -7l-7 -45l45 -7l6 -35l-20 3l1 -45l-46 -1l1 -45h-45v-45l-34 -12l-55 -4h-29l-59 2l-19 38l-45 -2l-3 45l-45 -2l-13 33l25 6l-6 45l45 6l-6 44l32 16l6 7l-12 6l-4 34l-45 8l8 45l-45 8l-5 35l24 14l-16 43l42 16l-17 42l28 23l20 -9l19 41l41 -19
l18 42l36 -4l24 -14l29 34l33 -13h11l12 -31l45 4l4 -46l45 4l4 -45l45 4l14 -33l-14 8l7 -44l-45 -7l6 -45l-44 -6l6 -45l-32 -16zM311 128v1l-33 55l-45 -1l-12 34l-14 8l-1 -45h-45v-45l-34 -11l32 -55l45 -1l11 -34l16 -7v45h45l1 45zM367 401v1l-18 45l-45 2l2 46
l-45 2l-9 35l-48 -30l3 -46l-46 -2l3 -46l-33 -13l9 -30l45 1l1 -45l46 2l12 -34l39 14l2 45l45 -2l3 45z" />
    <glyph glyph-name="nine" unicode="9" horiz-adv-x="586" 
d="M211 -172l-38 26l-39 -24l-23 39l-39 -23l-27 23l9 4l15 -11l15 43l42 -15l15 43l36 -1l20 -6l9 44l44 -9l9 44l44 -9l9 45l36 4l18 2l-17 42l41 17l-17 42l42 18l-18 41l27 24l-29 55l-45 1l1 45l-45 2l1 45l-45 2l-10 34l-41 -28l6 -44l-45 -6l6 -45l-32 -16l-12 -13
l42 -17l-17 -42l42 -17l-2 -36l11 -22l42 17l23 -27l39 -1l17 42l36 -3l24 -9l-25 4l-11 -44l-44 11l-11 -44l-44 11l-11 -43l-36 -3l-23 47l-45 2l1 45l-45 1l2 45l-46 2l-10 34l20 4l-13 43l43 13l-13 44l43 13l-13 43l29 21l38 1l14 43l43 -15l15 43l43 -15l14 43h36
l16 -26l43 15l15 -43l42 14l22 -28l-1 -38l42 -16l-17 -43l42 -16l-2 -36l1 -21l-29 -38l21 -40l-40 -21l21 -40l-25 -26l-46 -32l4 -45l-45 -4l5 -45l-33 -15l-23 3l-6 -45l-45 7l-7 -45l-44 6l-7 -45z" />
    <glyph glyph-name="colon" unicode=":" horiz-adv-x="270" 
d="M111 98l44 -43l44 12l20 -30l-26 3l-11 -44l-36 -2l-35 44l-45 -8l-17 31l15 -10l11 44zM111 301l44 -43l44 12l20 -30l-25 4l-12 -43l-36 -2l-35 44l-45 -8l-17 31l14 -10l12 43z" />
    <glyph glyph-name="semicolon" unicode=";" horiz-adv-x="350" 
d="M230 138v1l18 -17l34 31l31 -18l-42 -26l4 -45l-45 -4l4 -45l-45 -4l4 -45l-45 -5l4 -45l-33 -14l2 16l-37 -26l-29 21l-6 21l23 2l-3 45l46 3l-3 45l45 3l-3 45l45 3l-2 45zM209 301l43 -43l44 12l20 -30l-24 5l-12 -44l-36 -2l-34 43l-45 -7l-17 31l13 -11l12 44z" />
    <glyph glyph-name="less" unicode="&#x3c;" horiz-adv-x="361" 
d="M354 521v-41l-31 -1l-9 -44l-45 9l-9 -44l-44 9l-10 -44l-44 9l-9 -44l-36 -4l15 -29l44 9l9 -45l45 9l9 -44l44 9l9 -45l44 9l18 -31l-16 -47l32 -32l-16 -32l-21 34l-45 -9l-8 45l-45 -9l-8 45l-45 -9l-8 44l-45 -8l-8 44l-45 -8l-8 44l-44 -8l-18 31v8l32 1l10 44
l44 -10l10 45l44 -10l10 44l44 -10l10 44l44 -10l10 44l44 -10l10 44z" />
    <glyph glyph-name="equal" unicode="=" horiz-adv-x="541" 
d="M35 117l16 -3l-14 43l29 21l8 -16l32 32l32 -32l32 32l32 -32l32 32l32 -16l38 -16l32 33l32 -16l38 -14l30 34l33 -14h-18l12 -44l-29 -20l-7 16l-32 -32l-32 32l-32 -32l-32 16l-49 -2l-30 16l-32 -32l-32 16l-57 15l-32 -32zM47 240l16 -3l-14 43l29 21l7 -16l32 32
l32 -32l32 32l32 -32l32 32l32 -16l33 -16l32 33l32 -16l42 -14l30 34l33 -14h-19l13 -44l-30 -20l-4 16l-32 -32l-32 32l-32 -32l-32 16l-51 -2l-28 15l-32 -32l-32 15l-57 16l-32 -32z" />
    <glyph glyph-name="greater" unicode="&#x3e;" horiz-adv-x="430" 
d="M27 57v41h30l10 45l44 -10l10 44l44 -10l10 45l44 -10l9 44l36 4l-16 30l-44 -9l-9 45l-44 -9l-9 45l-44 -9l-9 44l-44 -8l-18 31l16 47l-32 32l16 32l23 -35l45 8l8 -44l45 8l8 -44l45 8l8 -44l45 8l8 -44l45 8l8 -44l45 8l17 -31v-4l-34 -3l-10 -44l-44 10l-10 -44
l-44 10l-10 -45l-44 10l-10 -44l-44 10l-10 -44l-45 10l-9 -44z" />
    <glyph glyph-name="question" unicode="?" horiz-adv-x="350" 
d="M135 102l13 -4l13 -18l37 26l29 -21l6 -17l37 27l29 -20l-14 9l-7 -44l-45 7l-7 -45l-35 -6l-29 25l-39 -21l-22 39l-40 -21l-26 24l53 13l11 44zM23 537l38 5l10 44l36 4l37 -6l22 39l35 -7l27 -44l45 3l14 -33l-19 -1l13 -43l-43 -13l12 -44l-29 -20l-19 -1l13 -44
l-44 -12l12 -44l-29 -20l9 -30l45 2l13 -33l34 -8l23 39l35 -7v-29l-63 -11l-17 -42l-42 17l-16 -43l-36 2l-34 47l-45 -5l-15 32h18l-13 43l43 13l-13 43l29 21l17 -2l-13 44l43 13l-13 43l29 21l-3 26l-45 -1l-12 34l-4 16l-24 -39l-35 9l-10 -5z" />
    <glyph glyph-name="at" unicode="@" horiz-adv-x="758" 
d="M578 79v1l-5 -16l44 13l20 -30l-51 1l-21 -40l-40 21l-21 -41l-35 6l-3 16l-32 -32l-32 32l-32 -32l-32 16l-47 -4l-43 40l-43 -14l-15 43l-43 -15l-21 29l-8 63l-42 18l18 42l-42 17l3 36l2 31l27 16l-14 43l43 14l-14 43l44 14l-14 43l29 21l29 -4l15 42l43 -15l15 42
l43 -15l15 42l36 -1l23 1l24 -16l32 32l32 -16l11 -1l46 -37l42 17l17 -42l42 17l23 -27l9 -57l42 -15l-15 -43l42 -15l-1 -36l-6 -48l-19 4l1 -45l-45 -1v-45l-45 -1l1 -45l-34 -12l-19 1l-12 -2l-14 31l-44 -6l-16 32l-20 9l-17 -42l-36 2l-25 -1l-57 -4l6 18l-45 3l4 46
l-46 3l-8 35l14 -8l-2 45l45 2l-2 45l46 2l-2 45l33 13l26 -1l21 -2h24l33 -6l31 -7l47 14l8 3l-2 -21l-18 -19l30 -35l-35 -29l30 -34l-19 -31l1 -31l36 -47l37 42l-15 42l43 15l-15 43l28 22l-7 51l-42 15l15 43l-43 15l1 36l-41 34l-42 -18l-18 42l-41 -18l-24 27l-24 7
l-16 -43l-42 16l-16 -43l-42 16l-16 -42l-36 1l-22 -12l17 -42l-41 -17l17 -42l-42 -18l18 -41l-27 -24v-3v-47l41 -19l-19 -41l41 -19l-4 -36l12 -23l42 17l17 -42l42 17l17 -42l42 16l23 -27l11 -13l20 41l41 -20l20 40l41 -20l20 41zM473 321v1l-13 31l-45 -5l-15 32
l-33 -15l4 -45l-45 -4l4 -45l-33 -14l13 -42l45 -5l8 -35l46 34l-7 45l45 6l-6 45z" />
    <glyph glyph-name="A" unicode="A" horiz-adv-x="791" 
d="M53 270v1l-3 59l26 52l-26 37l37 26l-25 37l21 29l28 13l-8 45l44 8l-8 45l31 17l17 -9l12 43l44 -12l12 43l36 2l56 -8l27 36l34 -11l25 -27l42 17l17 -42l42 18l18 -42l41 18l24 -27l-9 -17l43 -14l-14 -43l43 -14l-14 -43l43 -14l-14 -43l43 -14v-36l-15 -9l35 -29
l-13 -33l-18 -4l22 -40l-39 -22l22 -39l-40 -22l22 -40l-24 -26l-28 -16l11 -44l-43 -12l11 -43l-30 -20l-31 16l-32 -31l-32 16v2v2l6 53l24 38l-25 38l37 25l-25 38l22 28l-54 23l-35 -28l-30 20l-18 14l-27 -36l-36 27l-28 -35l-36 27l-27 -36l-34 12l-10 -19l40 -20
l-4 -35l-11 -18l39 -22l-22 -40l40 -22l-7 -35l-35 -6h-4l-9 26l-44 -8l-8 44l-45 -7l-17 31l10 17l-42 17l17 42l-42 16l17 42l-42 17zM566 298v1l2 30l10 49l-37 27l12 34l5 21l-45 7l8 45l-45 7l7 45l-44 8l7 44l-44 8l-6 35l-16 5l6 -45l-45 -6l6 -45l-45 -6l7 -45
l-45 -6l6 -45l-32 -16l-25 -45l26 -38l-22 -28l6 -45l45 -10l27 37l36 -27l27 36l34 -11l45 -22l36 28l28 -35l35 28z" />
    <glyph glyph-name="B" unicode="B" horiz-adv-x="791" 
d="M148 20v1l-16 57l-44 10l10 44l-44 10l-3 36l5 63l-37 26l25 37l-37 26l10 34v22l28 48l-24 38l39 24l-24 39l23 27l50 41l-7 45l45 7l-7 45l32 16l41 -14l30 33l33 -15l31 -19l35 28l29 -35l35 29l29 -35l35 28l30 -19l23 -27l42 18l18 -42l41 18l24 -27l16 -45l45 -5
l8 -35l2 -13l-36 -8l-4 -45l-45 5l-5 -45l-45 5l-5 -45l-45 5l-5 -45l-35 -8l47 -13l-1 -19l45 7l7 -44l45 7l8 -45l44 8l8 -45l44 8l17 -32l-39 -12l-4 -45l-45 3l-4 -45l-45 4l-3 -45l-35 -9l-49 3l-22 -40l-35 7l-34 15l-30 -33l-34 30l-30 -33l-33 15l-12 17l-34 -30
l-30 34l-34 -29l-31 18zM285 62v1l6 -1h5l33 -11l27 36l34 -11l49 6l15 42l43 -15l15 43l36 -1l21 36l-22 33l-44 -9l-9 44l-44 -9l-10 44l-44 -9l-18 31l-59 26l-37 -26l-29 21l-50 -8l-9 -31l39 -23l-23 -39l39 -23l-23 -39l39 -23l-8 -35zM521 534v1l1 7l1 18l-43 -14
l-14 43l-43 -15l-15 43l-43 -14l-14 43l-43 -14l-21 29l-31 -29l15 -42l-43 -15l15 -43l-28 -22l-24 -56l28 -36l-20 -30l38 -4l15 -14l27 36l34 -11l58 11l15 43l43 -15l14 43h36l17 -4l-7 45z" />
    <glyph glyph-name="C" unicode="C" horiz-adv-x="813" 
d="M764 493v1l-38 15l-32 -33l-32 32l-32 -33l-32 15l-12 49l-44 9l-4 36l-1 21l-45 -7l-7 44l-45 -7l-16 32l-11 12l-7 -45l-44 7l-7 -45l-45 7l-7 -45l-35 -6l-18 -5l23 -40l-39 -22l22 -39l-39 -23l23 -39l-24 -27l-14 -10l39 -23l-23 -39l39 -23l-23 -39l39 -23l-8 -35
l36 -50l45 4l4 -45l45 5l15 -33l34 4l9 44l44 -8l9 44l35 5l28 20l-15 43l28 22l57 -13l30 34l34 -30l30 33l33 -14l-5 -22l-48 -34l5 -45l-45 -5l5 -45l-32 -15l-42 4l-21 -40l-40 21l-21 -39l-40 21l-22 -40l-35 6l-23 1l4 16l-41 -21l-20 40l-40 -21l-21 41l-40 -21
l-26 25l-25 46h-45l-1 45l-45 -1l-12 34l1 57l-40 22l23 40l-40 22l7 35v4l31 51l-21 39l39 22l-21 40l24 26l51 25l1 45l46 -2l2 45l34 10l12 -13l21 40l40 -22l21 40l40 -21l22 40l35 -6l57 -28l38 25l25 -38l38 25l28 -22l-4 -17l45 6l6 -44l45 6l16 -32l10 -57l43 -15z
" />
    <glyph glyph-name="D" unicode="D" horiz-adv-x="824" 
d="M166 724v1l31 -16l32 31l32 -32l32 31l32 -32l32 31l32 -32l32 31l32 -16l-3 -17l43 14l15 -43l43 15l14 -43l43 14l21 -29l12 -39l45 -3l-4 -46l45 -3l9 -35l-10 -25l39 -23l-23 -39l39 -23l-7 -35v-5l-21 -17l24 -38l-39 -24l24 -39l-23 -27l-37 -18l4 -46l-45 -3
l3 -45l-33 -14l-15 11l-15 -43l-43 16l-15 -43l-43 16l-15 -43l-36 1l-23 16l-32 -32l-32 33l-32 -32l-32 32l-32 -32l-32 33l-32 -32l-32 16l-19 60l-44 9l10 45l-44 9l-4 36l15 7l-37 26l26 37l-37 26l26 37l-37 26l10 34v9l17 4l-26 37l37 26l-26 37l38 26l-26 37l21 29
l45 46l-11 44l44 12l-12 43zM299 669v1l-16 4l17 -42l-43 -16l17 -42l-28 -23l-16 1l27 -36l-36 -27l27 -36l-36 -27l27 -37l-20 -29l-16 -2l30 -34l-17 -31l2 -61l40 -21l-21 -40l41 -21l-21 -40l40 -21l-6 -35l54 7l17 42l42 -17l16 43l36 -2l23 1l-2 45l45 2l-1 45l33 13
l16 -4l-23 40l40 22l-23 39l24 27v5l14 9l-39 23l23 39l-39 23l8 35l-1 25l-45 2l3 45l-46 3l-9 34l-34 32l-42 -16l-17 42l-42 -16z" />
    <glyph glyph-name="E" unicode="E" horiz-adv-x="781" 
d="M412 718v1l15 -24l42 17l17 -42l42 17l17 -42l42 17l23 -27l-6 -18l45 -3l-3 -45l45 -3l-3 -45l45 -3l9 -35l-54 14l-31 -33l-33 31l-30 -33l-33 15l-21 48l-45 2l2 45l-45 3l3 45l-46 2l-9 35l-35 -20l7 -44l-45 -7l7 -45l-45 -7l7 -44l-45 -7l7 -45l-32 -16l-1 -23
l52 -11l29 36l33 -13l51 -3l26 -21l37 26l29 -21l2 -49l-58 19l-34 -31l-31 18h-8l-3 16l-26 -38l-37 26l-26 -38l-34 10l-2 -21l-9 -29l38 -24l-8 -35l8 -31l45 -1v-45h45v-46h45l11 -34l8 -1l20 -5l5 45l45 -6l6 45l35 7l33 26l-12 43l30 20l42 -17l32 32l32 -33l32 32
l32 -17v-1v-1l-52 -29l-1 -45l-45 1l-1 -46l-45 1l-1 -45l-34 -11l-7 14l-17 -42l-42 17l-16 -42l-36 2l-50 -3l-43 2l-28 3l-45 42l-44 -13l-13 43l-43 -13l-21 29l-3 29l-45 5l5 45l-45 5l-8 35l13 15l-39 24l24 38l-38 24l8 35l33 54l-22 40l40 21l-21 40l24 26l55 28
l2 45l45 -2l3 45l34 10l14 -12l20 40l40 -20l21 40l40 -20l21 40z" />
    <glyph glyph-name="F" unicode="F" horiz-adv-x="791" 
d="M316 714v1l52 -14l30 34l33 -15l53 -2l17 -28l44 11l11 -44l44 12l12 -44l43 12l20 -30l-9 -16l45 -9l-10 -44l45 -9l4 -36l-56 17l-32 -32l-32 33l-32 -32l-32 17l-20 44h-45l1 46l-45 1l1 45l-45 1l-11 34l-48 -31l2 -45l-45 -3l3 -45l-45 -3l3 -45l-33 -14l-18 -9
l26 -37l-22 -29l43 -11l28 36l34 -12l43 -19l34 29l31 -18l46 -8l-16 -1l32 -32l-16 -32l-48 23l-37 -27l-29 20l-28 13l-28 -35l-35 28l-28 -35l-34 12l-1 -17l-11 -40l35 -28l-12 -34l-5 -39l40 -21l-21 -40l40 -22l-21 -40l40 -21l-6 -35l-6 16l-31 -33l-33 31l-31 -33
l-32 15l7 22l-43 14l13 43l-43 14l14 43l-43 14v36l11 29l-36 27l26 36l-37 27l11 34l21 27l-25 38l37 25l-26 37l22 29l31 17l-8 44l45 8l-8 45l31 17l52 13l11 44l44 -12l11 44z" />
    <glyph glyph-name="G" unicode="G" horiz-adv-x="848" 
d="M357 722v1l10 -2l19 1h27l-1 -16l34 30l31 -18l4 -19l41 19l18 -41l42 18l24 -26l16 -42l45 -3l-3 -45l45 -3l-3 -45l45 -3l9 -35l-50 16l-32 -32l-32 33l-32 -32l-32 16l-11 35l-3 24l-45 -2l-3 45l-45 -3l-3 45l-45 -2l-13 33l-50 -24l-2 -45l-45 2l-3 -45l-34 -10
l-27 -35l22 -39l-40 -22l22 -40l-24 -26l-1 -22l-13 -15l39 -23l-23 -39l39 -23l-23 -39l39 -23l-7 -35l24 -41l45 5l4 -46l46 5l14 -33l24 5l-5 45l45 5l-5 45l45 5l-5 45l45 5l-5 45l32 15l-43 19l-58 7l-27 -36l-34 11h-3h16l-32 32l16 32l10 -15l27 36l37 -27l27 36
l36 -27l27 36l34 -11h10l26 -20l37 26l26 -37l37 27l29 -21l1 -21l-17 -2l21 -39l-39 -22l21 -40l-24 -26l-30 -8v-45h-45v-46l-34 -11l-62 -11l-16 -42l-42 16l-16 -42l-36 1l-52 -5l-61 4l-50 40l-43 -16l-16 42l-42 -17l-23 28l-11 38l-45 4l3 45l-45 4l-8 35l10 28
l-39 24l24 39l-39 23l8 35v10l21 18l-23 39l39 23l-23 39l24 27l36 18l-5 45l46 4l-5 46l33 14l11 -12l14 42l43 -14l15 43l43 -15l14 43h36z" />
    <glyph glyph-name="H" unicode="H" horiz-adv-x="848" 
d="M184 729v1l10 -16l33 30l30 -33l34 31l31 -17l-16 3l14 -43l-43 -14l14 -43l-29 -21l-29 -57l24 -38l-38 -24l25 -38l-23 -28l2 -28l25 -13l28 36l36 -27l27 36l34 -12l1 -16l33 31l31 -17l29 -20l36 27l27 -36l37 27l29 -20l2 31l7 43l-38 24l25 38l-38 25l24 38l-38 24
l9 35l10 22l-40 21l6 35l40 1l39 1l25 1h25l17 -60l44 -11l-11 -44l43 -11l3 -36l-16 -4l37 -27l-26 -36l37 -27l-26 -37l36 -26l-10 -34v-20l-16 2l25 -38l-38 -24l25 -38l-38 -25l24 -38l-22 -28l-15 6l9 -45l-44 -9l9 -44l-44 -10l9 -44l-31 -18l-11 1l-11 1l-40 -2
l-52 -3l-29 1l37 46l-16 42l27 23l21 8l-17 42l27 23l30 58l-24 38l23 28v2l-58 27l-38 -25l-25 37l-37 -26l-29 22h-7l-54 6l-26 -38l-37 26l-26 -38l-34 10l-1 -19l-7 -65l36 -27l-11 -34l5 -54l41 -17l-17 -42l42 -17l-3 -36l-12 16l-32 -32l-32 33l-32 -32l-32 16
l-13 49l-44 9l9 44l-44 9l-4 36l7 44l-38 25l24 38l-38 24l9 35l-1 34l22 29l-26 37l37 26l-26 37l37 26l-25 37l21 29l47 43l-10 44l45 10l-10 44z" />
    <glyph glyph-name="I" unicode="I" horiz-adv-x="338" 
d="M51 720v1l17 -16l32 32l32 -32l32 31l32 -32l32 32l32 -16l-23 -50l27 -36l-37 -27l27 -37l-20 -29l-18 -47l30 -34l-34 -30l31 -34l-18 -31l-13 -55l33 -30l-30 -34l33 -30l-14 -33l-8 -60l36 -28l-27 -36l36 -27l-11 -34h-21l-21 1l-57 -1h-7l-43 16l-32 -32l-32 16
l24 49l-26 37l37 26l-27 37l21 29l20 57l-30 34l34 30l-29 34l18 31v34l14 39l-34 30l30 34l-33 30l14 33l10 35l-37 26l25 37l-37 26z" />
    <glyph glyph-name="J" unicode="J" horiz-adv-x="656" 
d="M342 718v1l9 -1l6 -16l31 33l33 -31l31 33l32 -15l11 -59l43 -14l-14 -43l43 -14v-36l-5 -56l38 -25l-25 -38l38 -24l-9 -35l1 -36l-1 -30l-23 -18l20 -40l-40 -21l20 -40l-41 -20l20 -41l-25 -25l-25 4l-12 -44l-43 12l-12 -44l-44 12l-11 -44l-36 -2l-36 1h-12h-24
l-22 20l-37 -25l-29 21l11 12l-45 4l3 45l-45 4l4 45l-45 3l4 46l-46 3l-8 35l32 -12l27 36l34 -11l17 -16l32 32l32 -16l-3 -36l11 -39l45 -4l-4 -45l45 -4l8 -35l26 21l-17 42l42 17l-18 42l42 18l-17 41l41 18l-17 42l27 23l12 43l-35 29l28 35l-35 29l13 33l4 56l-38 24
l24 38l-39 24l9 35z" />
    <glyph glyph-name="K" unicode="K" horiz-adv-x="734" 
d="M309 720v1l-27 -24l18 -41l-41 -18l17 -42l-41 -18l18 -41l-27 -24l-17 -7l26 -37l-37 -26l26 -37l-21 -29v-5v-6l38 1l15 42l42 -14l15 42h36l38 20l-3 45l45 3l-3 45l33 14l33 32l-14 43l42 14l-14 43l28 22l42 3l59 -16l32 31l32 -16l-36 -48l19 -41l-42 -19l18 -41
l-26 -24l-48 -29l2 -45l-45 -2l2 -45l-33 -13l19 -50l45 -5l-6 -45l45 -6l-5 -45l45 -5l7 -35l-10 -31l37 -26l-25 -37l37 -26l-26 -37l38 -26l-10 -34l-33 1h-23l-7 16l-32 -33l-32 15l10 16l-43 14v36l-2 37l7 30l-41 20l20 40l-40 20l20 41l-40 20l20 40l-41 21l5 35
l-49 -3l-17 -41l-42 17l-17 -42l-36 3l-60 -7l-21 -33l-15 -4l37 -26l-26 -37l38 -26l-26 -37l38 -26l-10 -34l-13 -15l39 -23l-7 -35l-60 -2l-61 -2l-12 57l-43 14l13 43l-43 13l-1 36l9 42l-37 27l26 37l-36 26l10 34l17 6l-25 38l37 25l-25 38l37 25l-26 37l22 29l31 22
l-13 44l44 12l-13 44l44 12l-13 44l30 20l25 -17l34 30l31 -17z" />
    <glyph glyph-name="L" unicode="L" horiz-adv-x="734" 
d="M316 722v1l-19 -7l22 -40l-39 -22l22 -39l-40 -22l23 -40l-40 -22l22 -40l-24 -26l-16 -1l29 -35l-34 -29l29 -34l-18 -31l-15 -7l36 -27l-28 -36l36 -28l-28 -36l36 -27l-12 -34l9 -8l6 -21l43 14l14 -43l43 14l21 -29h1l8 -14l13 43l43 -13l14 43l43 -14l14 44l43 -14
l13 43l36 1l13 -10l6 45l35 7l-14 -21l34 -29l-13 -33l-17 -15l31 -34l-17 -31l-2 -25l-30 11l-26 -37l-37 25l-26 -37l-37 26l-26 -37l-37 25l-26 -37l-34 10h-25l-21 19l-36 -28l-28 35l-36 -27l-28 35l-35 -28l-30 20l-9 48l-44 11l11 44l-44 11l-2 36l8 37l-38 25l25 38
l-38 24l9 35l-1 25l17 1l-26 38l37 25l-25 38l37 25l-26 37l22 29l21 4l-12 44l44 11l-12 44l44 12l-12 43l30 20l27 -1l57 2z" />
    <glyph glyph-name="M" unicode="M" horiz-adv-x="1018" 
d="M314 722v1l-6 -18l45 -5l-5 -45l45 -5l-5 -45l45 -5l8 -35l8 -61l41 -17l-17 -42l42 -17l-3 -36l42 48l-14 43l42 14l-14 43l43 14l-14 43l43 15l-15 43l29 21l41 48l18 -17l34 31l30 -33l34 30l31 -17l-11 -14l44 -11l-12 -44l44 -12l-12 -44l44 -11l2 -36l-5 -59
l37 -26l-25 -37l37 -26l-10 -34l-27 -57l25 -38l-37 -25l26 -38l-22 -28l-24 -8l10 -44l-44 -10l9 -44l-44 -9l10 -45l-31 -18l-60 2l-61 3l30 47l-22 40l40 22l-22 40l39 22l-22 39l40 22l-22 40l24 26l1 43l12 24l-37 26l26 37l-37 26l26 37l-37 26l10 34l-29 -10l5 -45
l-45 -5l4 -45l-45 -4l5 -45l-33 -15l-35 -36l15 -43l-43 -15l15 -42l-43 -15l15 -43l-28 -22l-17 33l12 11l-42 15v36l-3 38l-43 12l12 44l-43 12l-2 36l-24 44l-45 -1l-1 45l-46 -2l-12 34l-22 -42l27 -36l-37 -27l27 -37l-20 -29l-16 -1l33 -30l-14 -33v-51l41 -20
l-20 -40l41 -20l-20 -41l40 -20l-20 -41l41 -20l-5 -35l-4 16l-31 -33l-32 15l-4 16l-32 -33l-32 15l8 17l-45 7l7 45l-45 7l7 45l-44 7l-6 35l14 10l-37 25l25 38l-38 25l25 37l-37 25l9 35l1 35l26 45l-24 38l39 24l-25 38l23 28l41 37l-10 44l43 11l-10 44l30 19l10 -16
l32 32l32 -32l32 32z" />
    <glyph glyph-name="N" unicode="N" horiz-adv-x="781" 
d="M158 724v1l-45 -41l10 -44l-44 -10l10 -45l-31 -18l-27 -59l25 -38l-37 -25l26 -37l-22 -29l-10 -58l35 -28l-12 -34l2 -40l43 -14l-14 -43l43 -14l-14 -43l43 -14l-14 -43l43 -14v-36l7 -16l32 32l32 -32l32 32l32 -16l-5 59l-41 19l19 41l-41 18l18 42l-41 18l4 36
l11 38l-36 28l27 36l-36 27l11 34l21 20l-25 38l38 24l-24 38l22 28l32 -54h45v-45h46l11 -34l-13 -11l43 -16l-16 -42l43 -16l-16 -42l42 -16l-1 -36l-8 -44l37 -26l-25 -37l37 -26l-25 -37l37 -26l-10 -34l17 -1h16l43 1h42h15h14l27 24l-17 42l41 17l-17 42l42 18l-18 41
l27 24l26 57l-27 37l37 26l-26 37l21 29l5 55l-38 25l24 38l-38 24l9 35l-17 54l-45 8l9 45l-44 9l-5 35l-10 16l-32 -32l-32 32l-32 -32l-32 16l8 -58l42 -16l-16 -42l43 -16l-2 -36l-12 -34l36 -28l-28 -35l36 -28l-12 -34l-20 -22l27 -36l-36 -27l26 -37l-36 -26l27 -37
l-21 -29l12 19l-38 25l25 38l-38 25l25 38l-38 24l9 35l-5 55l-42 18l18 42l-42 17l3 36l-17 52l-44 8l8 45l-45 8l-5 35l-56 23l-34 -1l-5 16l-32 -31z" />
    <glyph glyph-name="O" unicode="O" horiz-adv-x="824" 
d="M330 720v1l63 -17l32 31l32 -17h43l36 -38l43 13l13 -43l44 12l20 -29l3 -32l45 -8l-7 -44l44 -8l6 -35l-11 -28l38 -25l-25 -37l37 -25l-9 -35l-23 -17l19 -41l-41 -19l19 -41l-41 -19l19 -41l-26 -25l-30 -4l-4 -45l-45 4l-4 -45l-45 4l-4 -45l-35 -8l-18 14l-29 -34
l-35 29l-29 -35l-35 29l-29 -34l-33 13l-56 21l1 20l-45 -5l-4 45l-45 -5l-5 45l-45 -5l-15 33l11 14l-42 15l15 43l-42 15l15 43l-42 15l1 36l-1 25l3 41l22 15l-20 41l41 19l-20 41l26 25l31 11l-2 46l45 2l-3 46l33 13h36l15 42l43 -15l15 43zM402 688v1l-31 -11l4 -46
l-45 -3l3 -45l-45 -4l4 -45l-33 -14l-24 -22l21 -41l-41 -20l21 -40l-25 -26v-2l-7 -33l40 -21l-22 -40l40 -22l-6 -35l11 -36l46 -1l-2 -45l45 -2l-1 -45l45 -2l10 -34l54 29l1 45l45 -2l2 46l34 10l31 55l-23 39l39 23l-23 39l24 27v5l15 7l-39 23l23 39l-39 23l23 39
l-39 23l8 35l10 13l-46 -3l-2 46l-45 -3l-3 45l-45 -2z" />
    <glyph glyph-name="P" unicode="P" horiz-adv-x="699" 
d="M158 722v1l15 -16l32 32l32 -33l32 32l32 -16l42 -17l32 31l32 -17l49 -38l42 18l17 -42l42 17l23 -27l12 -46l45 -8l-9 -44l45 -9l5 -35l-25 -18l18 -41l-27 -24l-40 -13l-4 -45l-45 4l-4 -46l-35 -8h-65l-23 -39l-39 23l-23 -39l-35 7l-62 6l4 16l-40 -22l-26 24
l-14 -8l40 -21l-22 -40l40 -22l-21 -39l40 -22l-6 -35v-46l41 -18l-4 -36l-1 16l-32 -32l-32 32l-32 -32l-32 16l12 11l-44 11l10 44l-44 11l11 44l-44 10l-3 36l2 60l-39 23l23 39l-39 23l8 35l-1 36l25 46l-26 37l37 26l-25 37l21 29l47 44l-10 44l44 10l-10 45zM281 667
v1l-25 -30l23 -40l-39 -22l23 -39l-40 -23l23 -39l-39 -23l23 -39l-24 -27l1 -43l38 -8l24 38l35 -9l26 -2l9 44l44 -9l9 44l44 -9l9 45l36 4l7 25l-29 45l-45 -4l-4 45l-45 -4l-4 45l-45 -4l-14 33z" />
    <glyph glyph-name="Q" unicode="Q" horiz-adv-x="813" 
d="M379 720v1l32 -25l40 22l22 -39l39 22l27 -24l20 -37l45 4l4 -45l45 5l15 -33v-38l43 -15l-16 -43l43 -15l-1 -36l5 -47v-7l-16 -2l27 -36l-20 -30l-39 -48l17 -42l-42 -17l16 -42l-27 -23l3 -25h45v-45l46 1v-46l45 1l12 -34l-11 16l-32 -33l-32 15l-12 16l-32 -32
l-32 16l-8 49l-44 12l-1 36l-54 -7l-17 -42l-42 17l-16 -43l-36 2l-5 16l-29 -35l-33 13l-52 31l-40 -22l-22 39l-39 -22l-27 24l-26 52l-45 2l2 45l-45 3l-10 34l15 4l-39 23l23 39l-39 23l23 39l-39 23l7 35v3v2l7 54l23 6l-11 44l44 11l-11 44l44 11l-11 44l30 19l23 -5
l12 44l44 -11l11 43l44 -11l11 44l36 2l52 6h6h5zM383 663v1l-27 -4l-1 -45l-45 1l-1 -46l-45 1l-1 -45l-34 -11l-19 -6l22 -40l-40 -21l21 -40l-25 -26l1 -12v-3l1 -65l39 -23l-7 -35l16 -51l44 -9l-8 -44l44 -9l5 -35l-7 -14l44 10l19 -30l41 23l-3 46l45 3l-3 45l45 3
l-3 45l33 14l17 1l-24 39l39 23l-23 39l23 27l15 7l-39 23l23 39l-39 23l7 35l-9 34l-46 3l3 45l-46 2l3 45l-45 3z" />
    <glyph glyph-name="R" unicode="R" horiz-adv-x="689" 
d="M414 726v1l14 -28l44 8l9 -44l44 9l9 -45l44 9l18 -31l5 -45l44 -14v-36l-26 -8l7 -45l-45 -7l7 -45l-44 -7l7 -45l-32 -16l-23 -14l1 -31l44 -9l-9 -44l45 -9l-9 -44l44 -9l-9 -45l45 -8l4 -36l7 -57l-3 -35l-10 16l-32 -31l-32 17l-10 16l-32 -32l-32 16l17 4l-27 37
l20 29l-3 48l-42 17l16 42l-42 17l17 42l-42 16l2 36l-57 11l-29 -35l-33 13l-29 18l-34 -29l-31 18l-6 -48l37 -25l-9 -35l-14 -7l42 -16l-16 -42l42 -17l-17 -42l43 -16l-2 -36l-18 16l-32 -32l-32 16l-55 -2l10 14l-43 12l11 44l-43 12l12 43l-44 12l-2 36l13 15l-37 26
l26 37l-37 26l25 37l-37 26l10 34v11l25 56l-26 37l37 26l-27 37l21 29l41 41l-12 43l44 12l-13 44l30 20l21 -16l32 32l32 -16l25 1l18 -16l32 32l32 -33l32 32zM275 679v1l-27 -35l21 -40l-40 -22l22 -40l-40 -21l21 -40l-24 -26l-2 -46l-16 -6l35 -30l-14 -33l33 -3
l17 42l42 -17l16 42l42 -17l17 42l36 -2l29 11l-5 45l33 15l3 19l-45 -2l-2 45l-45 -2l-2 45l-45 -2l-2 45l-45 -1z" />
    <glyph glyph-name="S" unicode="S" horiz-adv-x="758" 
d="M373 718v1l4 -1h3h4l35 -27l40 22l21 -40l40 21l26 -24l10 -30l46 2l2 -45l46 3l13 -33l21 -39l-28 12l-28 -36l-36 28l-27 -37l-34 12l-32 42l-29 46l-45 -3l-3 45l-45 -3l-14 33l-28 -12l7 -44l-44 -8l7 -44l-44 -8l7 -44l-45 -8l8 -44l-32 -17l3 -16l34 30l30 -34
l34 30l30 -33l34 30l31 -18l52 -24l37 26l26 -36l37 27l29 -21l14 -21l39 22l22 -39l40 21l26 -24l1 -31l-16 1l20 -40l-40 -20l20 -41l-40 -20l20 -41l-25 -25l-42 -12l-6 -45l-45 6l-6 -44l-35 -7l-43 6l-24 -38l-38 24l-24 -38l-35 8h-5l-54 35l-41 -20l-20 40l-41 -20
l-25 25l-9 37l-45 4l5 45l-45 5l5 45l-45 5l-8 35l24 -15l32 32l32 -15l24 -16l32 32l32 -16l11 -23l13 -36l45 -1v-45h45v-46h45l11 -34l7 4l46 33l-6 45l45 6l-5 45l44 6l-5 44l32 16l-26 27l-42 -19l-24 26l-9 19l-39 -22l-22 40l-40 -23l-22 40l-40 -22l-26 24l-35 21
l-35 -28l-28 36l-36 -28l-27 36l-36 -28l-30 20l36 46l-17 41l42 18l-18 41l42 18l-17 42l27 23l12 -11l11 44l44 -11l11 44l44 -11l10 44l36 3l31 -11l27 37z" />
    <glyph glyph-name="T" unicode="T" horiz-adv-x="723" 
d="M25 677v1l10 -15l26 38l37 -26l26 37l37 -26l26 37l34 -10l45 -13l30 34l34 -29l30 34l33 -14l59 -25l36 27l27 -37l36 27l27 -36l37 26l26 -36l37 27l29 -21l-4 1l1 -17v-17l-1 -48v-6l-16 -23l32 -32l-16 -32l-11 22l-42 -17l-16 42l-43 -16l-16 42l-42 -17l-17 42
l-42 -16l-23 27h-16l30 -33l-33 -30l30 -34l-34 -30l30 -34l-33 -30l30 -34l-18 -31l-15 -32l32 -32l-15 -32l-14 -13l36 -27l-27 -37l37 -26l-27 -37l36 -27l-26 -36l36 -27l-11 -34l-31 16l-32 -32l-32 16l-62 16l-32 -32l-32 16l17 8l-28 36l36 28l-28 36l36 28l-28 35
l20 30l17 12l-30 34l33 30l-30 34l34 30l-30 34l18 31l15 20l-35 29l30 35l-35 29l30 34l-35 30l14 33l-59 -5l-18 -41l-42 19l-18 -41l-36 4l-32 4l-17 -42l-36 2l16 7l-31 32l17 32v6l16 2l-31 32l17 32v22z" />
    <glyph glyph-name="U" unicode="U" horiz-adv-x="836" 
d="M291 721l-27 -33l21 -40l-41 -21l21 -40l-40 -21l21 -40l-25 -26l-17 -12l30 -34l-18 -31l-6 -46l38 -24l-24 -39l38 -24l-24 -38l39 -24l-9 -35l1 -22l45 4l4 -45l45 4l4 -45l45 4l14 -33l55 32l1 46h45v45l34 11l21 23l-24 38l38 24l-25 39l38 24l-24 38l22 28l15 18
l-34 30l14 33l-5 58l-41 19l19 41l-41 19l19 41l-41 19l4 36l4 -16l32 32l32 -33l32 32l32 -16l-7 -19l44 -11l-10 -44l44 -10l-10 -44l44 -10l3 -36l-2 -60l38 -24l-23 -38l38 -24l-8 -35l-7 -48l-25 -16l15 -43l-42 -15l15 -43l-28 -22l-36 -14l-1 -45h-45v-45l-34 -11
l-29 4l-17 -42l-42 17l-16 -43l-36 2l-45 -4l-2 16l-35 -29l-30 19l-35 33l-42 -17l-17 42l-42 -16l-23 27l-22 46l-45 1l1 46l-46 1l-10 34l1 49l-41 20l20 40l-40 21l5 35v9v8l4 54l39 45l-15 43l43 15l-15 42l42 16l-15 42l43 15l-15 43l28 22l1 -16l32 32l32 -31l32 32z
" />
    <glyph glyph-name="V" unicode="V" horiz-adv-x="813" 
d="M219 724v1v-22l-16 -1l33 -31l-15 -32l-15 -6l37 -26l-26 -37l37 -26l-26 -37l37 -26l-10 -34l9 -65l42 -17l-17 -42l42 -17l-3 -36l18 -53l45 -8l-7 -44l44 -8l6 -35l35 22l-7 45l44 7l-8 45l32 17l24 19l-19 41l40 19l-19 41l26 25l20 25l-28 36l36 27l-27 36l20 30
l17 37l-31 32l32 32l-31 32l17 32l48 -16l32 32l32 -32l32 32l32 -16l3 -57l-20 -47l30 -34l-19 -31l-19 -10l22 -39l-39 -22l23 -40l-40 -22l23 -39l-24 -27l-27 -17l14 -43l-44 -13l14 -43l-43 -14l13 -43l-29 -21l-16 7l1 -45l-45 -1v-45l-45 -1l1 -45l-34 -12l-49 -24
l-19 33l-45 -7l-8 44l-44 -8l-17 32l-16 45l-45 5l5 45l-45 5l-7 35l-9 53l-43 15l15 43l-43 14v36v54l-40 22l21 40l-40 21l6 35l10 43l-36 28l28 36l-37 27l12 34h61l30 1l27 -16l32 31z" />
    <glyph glyph-name="W" unicode="W" horiz-adv-x="1006" 
d="M213 726v1v-10v-10l1 -28l-16 -11l33 -32l-16 -32l-11 -49l35 -28l-29 -35l35 -29l-28 -35l35 -29l-13 -33l-1 -36l43 -15l-16 -43l43 -15l-16 -43l43 -15l-1 -36l29 21l-13 43l43 13l-13 44l43 13l-13 43l29 21l24 26l-22 40l40 22l-22 39l40 22l-22 40l24 26l7 32
l-7 -47l37 -26l-10 -34l-13 -11l39 -21l-21 -40l40 -21l-22 -40l40 -22l-6 -35l11 -48l44 -10l-10 -44l45 -10l3 -36l20 6l-15 42l43 15l-15 43l28 22l27 46l-25 38l39 24l-25 38l23 28l16 4l-29 35l34 29l-30 34l34 30l-29 34l18 31v32l-1 32l24 -16l32 33l32 -16l29 -1h59
l-15 -18l34 -30l-14 -33l-17 -13l29 -35l-35 -29l30 -34l-19 -31l-18 -5l23 -39l-40 -22l23 -40l-40 -22l23 -39l-24 -27l-24 -11l14 -43l-44 -13l14 -44l-43 -13l13 -43l-29 -21l-57 -30l-3 -45l-45 3l-2 -46l-35 -9l7 19l-44 9l10 45l-45 9l10 45l-44 9l10 45l-44 9l-4 36
l-14 39l-27 -19l16 -43l-28 -22l-23 -8l11 -44l-44 -11l11 -44l-44 -11l11 -44l-30 -19l-24 38l-44 -7l-7 45l-45 -7l-16 32l-13 47l-44 9l8 44l-44 9l-5 35l-3 53l-41 19l19 41l-42 18l4 36l9 46l-37 27l26 36l-37 27l11 34l16 2l-34 30l15 33l17 20l-30 34l17 31l48 -16
l32 32l32 -32l32 32z" />
    <glyph glyph-name="X" unicode="X" horiz-adv-x="813" 
d="M37 722v1l-2 -30l3 -35l10 -53l43 -13l-14 -44l43 -13l1 -36l34 -42l44 9l9 -45l44 9l18 -31l-20 5l-5 -45l-45 5l-6 -44l-44 5l-6 -45l-35 -7l-38 -52l18 -42l-41 -18l18 -41l-27 -24l-16 -4l29 -34l-18 -31v-14l27 -20l37 27l29 -20l28 -16l32 32l32 -16l-6 59l32 45
l-21 41l40 20l-20 41l25 25l51 25l2 45l45 -2l3 45l34 10l19 -41l45 -1v-45h45l11 -34l-3 -35l41 -18l-18 -41l42 -18l-3 -36l-13 -23l36 -27l-12 -34l27 -16l32 32l32 -16l21 -16l32 32l32 -16l-4 59l7 25l-41 18l17 41l-41 18l18 42l-42 17l3 36l-10 29l-45 -3l-3 45
l-45 -4l-4 46l-45 -4l-14 33l20 -5l6 45l45 -6l6 45l45 -6l6 44l35 7l25 15l-16 43l42 16l-16 42l42 16l-16 42l28 23l-25 16l-32 -31l-32 16l-31 -1h-59l-36 -42l17 -42l-42 -17l16 -42l-27 -23l-40 -16v-45h-45l-1 -45l-34 -11l2 23l-45 4l4 45l-45 4l5 45l-45 5l4 45
l-45 4l-8 35l15 8l-35 28l12 34v3v2h-48l-44 -1l-28 16l-32 -31z" />
    <glyph glyph-name="Y" unicode="Y" horiz-adv-x="746" 
d="M189 720v1l-14 -15l36 -27l-11 -34l2 -50l42 -19l-19 -41l41 -18l-3 -36l10 -31l45 1l1 -45l46 2l12 -34l41 22l-2 45l45 3l-2 45l33 13l15 -4l-22 39l40 22l-22 40l39 22l-22 40l24 26v16l32 -10l26 37l34 -10l29 -15l32 32l32 -15v-14l-18 -13l27 -37l-21 -29l-31 -24
l13 -44l-43 -13l13 -43l-29 -21l-37 -15l-1 -45h-45v-45l-34 -11l-42 -5l-13 -43l-36 -1l-3 -53l-13 -38l34 -30l-13 -33l-7 -43l38 -25l-24 -38l38 -24l-9 -35l-52 16l-32 -32l-32 32l-32 -32l-32 16l19 20l-27 36l36 27l-27 36l36 27l-27 37l20 29l-2 54l-7 53l4 16
l-43 -13l-13 43l-44 -13l-13 43l-43 -13l-21 29l8 17l-44 9l10 45l-44 9l10 45l-44 9l-4 36l4 62l-38 26l10 34l31 -10l26 37l34 -10l25 -16l32 32z" />
    <glyph glyph-name="Z" unicode="Z" horiz-adv-x="758" 
d="M695 692v1l-48 -32l3 -45l-45 -4l4 -45l-33 -14l-45 -36l7 -45l-44 -7l8 -45l-32 -17l-41 -39l12 -44l-44 -12l12 -43l-30 -20l-37 -40l15 -42l-43 -15l15 -43l-28 -22l35 -28l40 22l26 -25l40 1l15 43l43 -16l15 43l43 -16l15 43l36 -1l14 -10l9 44l44 -9l9 44l36 4
l-16 -11l34 -30l-31 -34l33 -30l-15 -33l3 -46l-59 1l-22 -39l-39 22l-23 -39l-39 23l-23 -39l-35 7l-3 16l-30 -34l-34 29l-30 -34l-33 14l-49 25l-37 -26l-26 38l-37 -26l-26 37l-37 -26l-26 37l-37 -25l-29 21l43 40l-11 44l44 11l-11 44l30 19l49 39l-6 45l44 6l-6 45
l32 16l52 35l-3 45l45 3l-3 45l33 14l51 29l-1 46h46l-1 45l34 12l-14 22l-41 -19l-18 42l-42 -19l-24 26h-4h-4l-10 13l-16 -42l-42 16l-16 -42l-43 16l-16 -42l-42 16l-16 -43l-36 2l-9 13l-10 -44l-44 10l-10 -44l-36 -3l1 33l1 33l17 56l-32 32l17 32l59 -6l26 36
l37 -26l27 37l36 -27l27 37l36 -26l27 37l34 -11l41 -14l30 33l33 -14l-1 -16l36 28l27 -36l36 28l28 -35l36 27l28 -35l35 28z" />
    <glyph glyph-name="bracketleft" unicode="[" horiz-adv-x="328" 
d="M29 750l37 -16l32 32l32 -32l32 32l32 -32l32 32l32 -16l-18 -1l17 -42l-28 -23l-16 2l-39 3l-26 4h-9l-16 -5l32 -32l-33 -32l32 -32l-32 -32l31 -32l-16 -32l-16 -58l32 -32l-32 -32l32 -32l-32 -32l32 -32l-16 -32l-16 -46l33 -32l-32 -32l32 -32l-32 -32l33 -32
l-16 -32l-14 -51l33 -30l-31 -34l34 -30l-15 -33v-18l34 2l39 8h15l-10 -15l43 -13l1 -36l-37 16l-32 -32l-32 32l-32 -32l-32 32l-32 -32l-32 16l18 9l-26 37l22 29l2 63l16 38l-33 32l32 32l-33 32l32 32l-32 32l31 32l-32 32l32 32l-33 32l32 32l-33 32l32 32l-32 32
l31 32l-32 32l32 32l-33 32l32 32l-33 32l16 32l14 55l-33 30l15 33l-6 24z" />
    <glyph glyph-name="backslash" unicode="\" horiz-adv-x="430" 
d="M8 566l44 -36l42 17l23 -27l-1 -43l42 -18l-18 -41l41 -18l-3 -36l1 -44l41 -17l-17 -42l42 -17l-3 -36l1 -43l42 -17l-18 -42l42 -17l-2 -36l-6 -27l42 -17l-17 -42l42 -17l-17 -42l42 -17l-2 -36l15 -37l-25 30l-43 -15l-22 28l12 13l-42 18l18 41l-42 18l18 42l-42 17
l3 36l11 14l-42 17l17 42l-42 16l17 43l-42 16l2 36l12 13l-43 16l16 42l-42 16l16 42l-42 16l1 36l-16 36l8 21l-42 16l1 36z" />
    <glyph glyph-name="bracketright" unicode="]" horiz-adv-x="314" 
d="M271 750l-7 -33l-6 -25l-18 -54l31 -34l-17 -31l-16 -1l32 -32l-33 -32l32 -32l-33 -32l32 -32l-32 -32l31 -32l-32 -32l31 -32l-16 -32l-16 -36l32 -32l-33 -32l32 -32l-32 -32l32 -32l-32 -32l32 -32l-33 -32l32 -32l-16 -32l2 -63l-14 -14l37 -27l-11 -34l-35 16
l-32 -32l-32 32l-32 -32l-32 32l-32 -32l-32 16l18 -1l-15 43l28 22h16l39 -8l35 -2v18l18 50l-31 33l33 30l-31 34l17 31l17 46l-32 32l33 32l-32 32l33 32l-32 32l17 32l16 58l-32 32l32 32l-32 32l32 32l-32 32l16 32l16 5l-33 32l32 32l-33 32l31 32l-32 32l15 32h-8
l-27 -4l-39 -3l-14 -2l11 14l-42 16l2 36l34 -16l32 32l32 -32l32 32l32 -32l32 32z" />
    <glyph glyph-name="asciicircum" unicode="^" horiz-adv-x="373" 
d="M184 608v1l15 -31l45 7l16 -32l13 -27l44 10l19 -31l-24 -6l7 -45l-32 -16l-47 36l-35 28l-39 36l-47 -14l-8 -44l-45 8l-8 -45l-35 -5l23 19l-22 40l25 26l10 4l10 -13l8 45l36 4l26 -3l9 44z" />
    <glyph glyph-name="underscore" unicode="_" horiz-adv-x="465" 
d="M41 -76l9 -16l32 32l32 -32l32 32l32 -32l32 32l32 -32l32 32l32 -32l32 32l32 -32l32 32l32 -16v-49l-9 16l-32 -32l-32 32l-32 -32l-32 32l-32 -32l-32 32l-32 -32l-32 32l-32 -32l-32 32l-32 -32l-32 16v49z" />
    <glyph glyph-name="a" unicode="a" horiz-adv-x="484" 
d="M150 460v1l36 5l26 -30l42 15l15 -43l43 15l22 -28l-1 37v3l14 41l8 -17l34 30l31 -19l-10 -39l37 -26l-26 -37l37 -26l-10 -34l-15 -18l33 -30l-14 -33l-22 -34l26 -37l-37 -26l27 -37l-37 -26l26 -37l-21 -29l-15 -1l-24 1l-39 2l11 27l-7 43l-37 -2l-12 -44l-44 12
l-12 -43l-36 -2h-8l-20 29l-44 -13l-13 43l-43 -13l-21 29l7 30l-41 19l19 41l-40 20l4 35v10l27 12l-10 44l44 10l-10 44l44 10l-9 44l44 9l-10 45zM223 415v1l-25 -16l15 -43l-43 -15l15 -42l-43 -15l15 -43l-28 -22l-1 -14l12 -57l44 -13l-13 -43l43 -13l1 -36l20 4
l-16 43l43 15l-16 43l43 15l-16 43l28 22l3 24l-9 55l-43 14l14 43l-43 14v36z" />
    <glyph glyph-name="b" unicode="b" horiz-adv-x="496" 
d="M127 644v1l57 -1h56l-26 -14l12 -44l-29 -20l-21 -8l17 -42l-42 -17l17 -42l-27 -23l7 -1l35 -4l18 42l36 -4l16 -1l39 -52l45 5l5 -45l45 5l5 -45l45 5l15 -33l-12 -17l39 -23l-8 -35l-8 -59l-20 -2l10 -44l-44 -10l10 -44l-31 -19l-33 5l-19 -41l-41 20l-19 -41l-36 4
h-5h-6l-41 38l-43 -14l-22 28l12 -23l-41 -31l-47 2l7 50l-37 26l26 37l-37 26l10 34l-2 59l19 22l-28 35l36 28l-27 36l36 27l-28 36l20 30l24 15l-17 42l42 17l-17 42l42 17l-16 42zM242 411v1l-19 -1l12 -43l-43 -13l12 -43l-44 -12l13 -44l-30 -20l-6 -24l42 -15
l-15 -42l43 -16l-15 -42l43 -15l-1 -36l25 11l-11 44l43 11l-11 44l44 12l-12 43l30 20l7 20l-43 12l12 44l-43 12l12 44l-43 12z" />
    <glyph glyph-name="c" unicode="c" horiz-adv-x="484" 
d="M250 466v1l10 -19l38 25l28 -23l-9 -13l45 2l3 -45l45 3l3 -45l45 2l13 -33l-9 16l-32 -32l-32 32l-32 -32l-32 16l-19 36l-9 29l-45 -2l-13 33l-22 -6l12 -43l-44 -12l12 -44l-44 -12l12 -43l-30 -20v-11l-7 -21l44 -12l-12 -44l44 -12l-12 -43l43 -12l2 -36l18 -4
l-2 45l45 2l-2 45l33 13h61h60l-46 -16l-5 -45l-45 5l-5 -45l-45 5l-5 -45l-35 -7l-34 -3h-2h-3l-33 4l5 18h-45l-1 45h-45v45h-45v45h-46l-11 34l-5 42l6 36l30 8l1 45h45v45h45l1 45h45v45l34 11l27 2h4h4z" />
    <glyph glyph-name="d" unicode="d" horiz-adv-x="484" 
d="M234 644v1l43 -1h25l13 1h37l9 -64l41 -17l-17 -42l42 -17l-3 -36l-6 -60l36 -27l-26 -36l37 -27l-11 -34l2 -61l-19 -31l28 -36l-35 -28l28 -35l-35 -29l28 -35l-19 -30l-47 -1l-49 -3l-47 16l-32 -32l-32 16l-16 24l-42 -18l-18 42l-41 -18l-24 27l5 24l-44 12l12 43
l-43 12l-2 36l-4 44l5 35l29 15l-9 44l45 9l-9 44l31 18l42 -2l18 42l42 -19l18 41l36 -4l52 11l12 14l-42 17l18 42l-41 18l18 41l-42 18zM225 401v1l-38 -40l15 -43l-43 -15l15 -42l-29 -22v-5l-2 -30l43 -14l-14 -43l44 -14l-14 -43l43 -13l1 -36l15 -6l-14 43l43 14
l-13 43l43 14l-14 43l29 21l-1 15l7 18l-44 10l10 44l-44 10l10 45l-44 9z" />
    <glyph glyph-name="e" unicode="e" 
d="M506 294v1l-9 -2l-40 11l-28 -35l-35 28l-28 -36l-34 12l-48 -5l-15 -43l-42 15l-15 -43l-36 1v-4l4 -32l-5 -20l45 -7l-7 -45l45 -7l6 -35l56 34l-1 45l34 12l24 55l1 -16l32 31l32 -16v-16l32 31l32 -16l-31 -22l12 -44l-44 -12l12 -43l-30 -20l-23 8l-18 -41l-41 18
l-18 -41l-36 3l-18 -2h-5h-6l-32 30l-41 -17l-18 42l-41 -18l-24 27l-5 39l-44 11l12 44l-44 11l-3 36l-4 36l1 14l24 11l-14 43l43 14l-14 43l29 21l33 2l11 44l44 -11l10 44l36 3l54 7l50 -6l32 -52l45 1l2 -45l45 1l1 -45l46 2zM178 292v1l26 -9l23 39l39 -23l23 39
l35 -7l-10 44l-44 9l-4 36l-25 -7l6 -45l-44 -6l6 -45l-32 -16z" />
    <glyph glyph-name="f" unicode="f" horiz-adv-x="441" 
d="M229 649v1l-3 -18l45 7l7 -45l45 7l7 -44l45 7l16 -32l-24 -58l-20 16l-32 -32l-32 16l3 28l-43 14l14 43l-43 13l-1 36l-16 4l23 -40l-39 -22l23 -39l-40 -23l23 -39l-39 -23l23 -39l-24 -27v-12l20 -16l32 32l32 -16h26l26 -1l1 -18v-13l-52 -20l-25 11l-24 -38l-35 9
l2 -41l5 -63l41 -20l-20 -41l41 -19l-19 -41l40 -20l-4 -35l-41 -1h-3l-38 -1l10 15l-43 13l13 43l-43 14l14 43l-43 14l13 43l-43 13l-1 36l14 19l-35 28l12 34v5v5l3 44l33 56l-21 40l40 21l-22 40l25 26l48 14l8 45l45 -8l8 45l35 5h4h3z" />
    <glyph glyph-name="g" unicode="g" horiz-adv-x="541" 
d="M344 446v1l8 17h55h54l-12 -20l39 -23l-8 -35l-10 -39l37 -26l-26 -37l37 -26l-10 -34v-4v-4l-18 -19l30 -35l-35 -29l30 -34l-19 -31l-21 -9l19 -41l-41 -19l19 -41l-41 -19l19 -42l-26 -24l-17 9l-11 -44l-44 11l-11 -44l-44 11l-11 -43l-36 -3l-12 -1l-22 42l-46 -3
l-2 45l-45 -2l-3 45l-45 -2l-13 33l53 16l10 -16l32 32l32 -16l18 -59l44 -10l3 -36l42 49l-15 42l29 22l-5 41l-21 24l-41 -21l-20 40l-40 -21l-21 41l-40 -21l-26 25l-4 48l-43 16l16 42l-42 16l1 36h16l-26 37l21 29l26 10l-10 44l45 10l-10 44l31 18l27 -6l18 41l42 -18
l17 42l36 -3l21 -21l38 24zM277 46v1h18l-13 44l43 13l-14 43l44 14l-14 43l29 21v14l2 29l-43 12l12 43l-44 13l12 43l-43 12l-2 36l-20 -5l14 -43l-42 -15l14 -43l-42 -14l14 -43l-28 -22v-2l8 -63l7 -37l45 -7l-8 -45l45 -7z" />
    <glyph glyph-name="h" unicode="h" horiz-adv-x="576" 
d="M244 651v1l-17 -5l24 -38l-38 -25l24 -38l-38 -24l24 -38l-22 -28l26 -13l27 36l34 -12l39 -33l42 17l17 -42l42 17l23 -27l6 -57l42 -18l-18 -42l42 -17l-3 -36l2 -37l-27 -58l26 -37l-37 -26l25 -37l-21 -29l-63 16l-32 -32l-32 16l18 18l-28 35l20 30l17 5l-29 35
l34 29l-29 35l19 30l-5 43l-22 60l-45 8l9 44l-45 9l-5 35h-18l13 -43l-44 -13l13 -43l-43 -13l12 -44l-29 -20l-5 -47l-15 -10l37 -26l-27 -37l36 -27l-26 -36l36 -27l-11 -34l-60 -1l-61 -2l15 7l-36 27l27 36l-36 27l28 36l-37 28l28 36l-36 27l11 34l19 29l-28 35l35 29
l-28 35l19 30l34 45l-19 41l41 19l-19 41l42 18l-19 42l26 24l36 -13l30 34z" />
    <glyph glyph-name="i" unicode="i" horiz-adv-x="281" 
d="M94 464v1l56 -1h57l-16 -3l36 -28l-28 -36l35 -28l-28 -35l35 -28l-12 -34l-20 -23l27 -36l-37 -27l26 -37l-36 -26l26 -37l-37 -26l27 -37l-21 -29l-60 2l-61 2l22 36l-27 37l37 26l-27 37l21 29l19 45l-29 34l34 30l-29 34l18 31l12 64l-34 30zM35 606v1l46 8l11 44
l36 2h3h2l26 -37l44 9l18 -31l-48 -17l-6 -45l-35 -7l-36 47l-45 -6z" />
    <glyph glyph-name="j" unicode="j" horiz-adv-x="260" 
d="M76 460v1l53 1l53 2l-12 -24l37 -26l-26 -37l37 -26l-26 -37l37 -26l-26 -37l37 -26l-10 -34l1 -57l-17 -12l29 -35l-35 -29l29 -35l-35 -29l29 -35l-19 -30l-34 -49l19 -41l-41 -19l20 -41l-26 -25l-15 15l-30 -33l-33 14l19 23l-27 36l36 27l-27 36l36 27l-27 37l20 29
l19 53l-30 34l33 30l-30 34l18 31l9 61l-35 28l28 35l-36 28l29 36l-36 28l28 35l-35 28zM20 575v1v2l47 16l7 45l35 6l29 -41l45 7l16 -32l-41 -9l-8 -45l-35 -5l-32 37l-43 -12z" />
    <glyph glyph-name="k" unicode="k" horiz-adv-x="496" 
d="M189 647v1l-17 -2l25 -37l-37 -26l25 -37l-38 -25l25 -38l-37 -25l25 -38l-22 -28l-2 -51l-14 -29l33 -30l-14 -33l49 26v45h45v45h45v46l34 11l24 48v-16l33 31l31 -17l63 -2l-30 -17l9 -44l-45 -9l9 -45l-44 -9l9 -44l-31 -18l-7 -17l44 -8l-7 -44l44 -8l6 -35l-5 -41
l39 -23l-23 -39l39 -23l-7 -35l-12 15l-30 -34l-34 30l-30 -34l-33 14l1 21l7 36l-39 23l23 39l-39 23l23 39l-39 23l7 35l-17 11l-18 -41l-42 18l-18 -41l-36 4l-14 -26l34 -30l-14 -33l-10 -42l36 -27l-11 -34l-61 1l-62 1l15 11l-37 27l27 36l-36 27l27 37l-37 27l27 36
l-36 27l11 34l1 34l23 55l-28 36l36 28l-28 35l20 30l32 43l-20 40l40 20l-20 41l26 25h55h54z" />
    <glyph glyph-name="l" unicode="l" horiz-adv-x="270" 
d="M8 647v1l26 -16l32 31l32 -16l10 -64l42 -17l-17 -42l41 -17l-17 -42l42 -17l-2 -36l-13 -23l36 -27l-27 -37l36 -27l-27 -36l36 -27l-11 -34l-18 -13l28 -36l-37 -27l28 -36l-36 -27l27 -36l-20 -30l-59 1l-60 1l19 41l-29 35l35 29l-30 34l19 31l12 56l-35 29l30 34
l-34 30l13 33l5 56l-38 25l25 38l-38 24l9 35l-2 62l-39 22z" />
    <glyph glyph-name="m" unicode="m" horiz-adv-x="871" 
d="M434 407v1l36 26l49 -1l21 40l35 -6l21 -1l-4 -16l42 18l17 -42l42 17l17 -42l42 17l23 -27l-14 -8l41 -20l-20 -41l41 -19l-19 -41l40 -19l-4 -36l-20 -18l24 -38l-38 -24l25 -39l-38 -24l24 -38l-22 -28l-63 1v16l-32 -31l-32 16l19 19l-27 36l36 27l-27 37l20 29v20
l14 8l-40 20l19 41l-40 19l20 41l-41 20l20 41l-41 20l5 35h-9l-29 -19l13 -44l-44 -12l13 -44l-44 -12l13 -44l-30 -20l-12 -31l37 -26l-27 -37l36 -27l-26 -36l36 -27l-11 -34l-19 16l-32 -32l-32 16l-20 16l-32 -32l-32 16l5 42l18 19l-28 35l20 30l17 18l-31 34l18 31
l2 33l-43 15l14 42l-43 15l15 43l-43 14v36l-33 -26l12 -43l-43 -13l12 -43l-44 -12l13 -44l-30 -20l-12 -20l37 -25l-25 -38l38 -25l-25 -37l37 -25l-9 -35l-12 16l-32 -33l-32 16l-12 16l-32 -32l-32 16l7 45l-38 25l25 37l-37 25l9 35l-1 43l16 -1l-25 38l37 25l-26 38
l37 25l-25 38l37 25l-26 37l22 29h58l-1 -16l37 26l29 -21l27 -12l27 37l34 -11l35 -30l41 19l18 -42l42 19z" />
    <glyph glyph-name="n" unicode="n" horiz-adv-x="576" 
d="M186 442v1l7 5l19 -10l21 40l35 -5l23 -1l13 -24l43 14l14 -43l43 15l15 -43l42 15l22 -29l-10 -25l39 -22l-22 -40l39 -22l-22 -39l39 -23l-7 -35l-2 -45l-17 -3l26 -37l-37 -26l26 -37l-21 -29l-7 16l-33 -31l-31 33l-32 -31l-32 17l20 52l-30 34l18 31l17 25l-32 32
l17 32v7v7l8 20l-42 15l16 43l-43 15l16 43l-43 15l1 36l-29 8l-29 -22l13 -43l-43 -14l14 -43l-43 -14l14 -43l-29 -21v-6l-11 -25l38 -24l-25 -38l38 -25l-24 -38l38 -24l-9 -35l-6 16l-32 -33l-32 16l-5 16l-32 -33l-32 16l8 37l-38 24l24 39l-38 24l24 38l-39 24l9 35
l-1 38l2 53l21 27l-26 37l37 26l-25 37l21 29l2 -16l32 32l32 -16l1 -16l32 32l32 -16l1 -4l-1 -7l-1 -7z" />
    <glyph glyph-name="o" unicode="o" 
d="M283 466v1l55 -10l17 -29l44 10l10 -44l44 10l19 -30l-8 -22l43 -15l-16 -43l43 -15l-1 -36v-11l-26 -18l15 -42l-43 -15l15 -43l-28 -22l-37 -4l-11 -44l-44 11l-10 -44l-36 -3l-41 -5h-5h-9l-33 34l-43 -16l-15 43l-43 -15l-22 28l-10 47l-44 11l10 44l-44 10l-3 36
l-3 34v1v1l21 -1l-1 45l45 1l-1 45l45 1l-1 46l45 1l-1 45l34 12l6 -15l27 36l34 -11h7zM283 433v1l-1 -1h-1l-21 -4l10 -44l-45 -9l10 -45l-44 -9l10 -45l-31 -18l-16 -4l36 -28l-12 -34l17 -45l45 -4l-3 -45l45 -4l8 -35l20 4l-13 44l43 13l-14 43l44 14l-14 43l29 21v4v3
l5 24l-43 12l12 44l-43 12l12 44l-43 12z" />
    <glyph glyph-name="p" unicode="p" horiz-adv-x="543" 
d="M523 241v1l-6 -43l-37 -30l11 -44l-44 -11l11 -44l-30 -19l-58 -5l-18 -42l-41 18l-18 -41l-36 3l-7 17l-36 -27l-30 20v-12l-4 -41l40 -21l-22 -40l40 -22l-21 -39l40 -22l-6 -35l-46 -12h-47l-5 48l-42 15l15 43l-42 15l15 43l-42 15l1 36l7 44l-38 25l25 38l-37 25
l25 38l-38 24l9 35v22l30 58l-24 38l39 24l-24 38l39 24l-24 39l23 27h35l13 -1h17l37 1l-13 -28l-11 -29l64 14l14 43h36l49 -6l37 -50l45 5l5 -45l45 5l5 -45l45 5l15 -32zM273 417v1h-3l-29 -21l13 -43l-44 -14l13 -43l-43 -13l13 -43l-29 -21l-3 -27l44 -12l-12 -44
l43 -12l-12 -43l44 -12l2 -36l34 29l-13 43l44 13l-13 43l43 13l-12 44l29 20l-2 29l-19 54l-45 8l7 44l-44 8z" />
    <glyph glyph-name="q" unicode="q" 
d="M0 245v1v1l16 -2l-23 39l23 27l60 25l6 45l45 -6l6 45l45 -6l6 44l35 7l23 2l15 -27l44 11l11 -44l44 11l19 -30l-12 46l-11 32l48 2l53 2l-2 -61l38 -24l-24 -38l39 -24l-24 -38l38 -24l-8 -35l-20 -35l28 -36l-36 -28l28 -35l-20 -30l-28 -33l21 -40l-41 -20l20 -41
l-25 -25l-31 -27l14 -43l-43 -15l15 -42l-29 -22h-48h-49l33 37l-16 42l27 23l16 1l-24 38l38 24l-24 38l22 28v6l-9 16l-30 -34l-33 15l-48 36l-41 -19l-19 42l-41 -18l-24 26l-9 48l-44 11l11 44l-44 11l-2 36zM250 421v1l-21 -3l10 -44l-44 -10l11 -44l-45 -10l11 -44
l-31 -19l7 -48l43 -13l-13 -43l43 -14l-13 -43l43 -13l1 -36l23 9l-12 43l44 12l-12 44l44 12l-12 43l30 20v3v2l2 32l-44 14l14 43l-43 14l14 43l-43 14v36z" />
    <glyph glyph-name="r" unicode="r" horiz-adv-x="430" 
d="M180 388v1h46l20 40l41 -19l19 41l41 -20l19 41l36 -4v-54v-54l-37 -1h-4l-6 15l-21 -40l-40 22l-21 -40l-40 22l-22 -40l-35 6l-20 -45l30 -34l-19 -31l-14 -35l34 -30l-14 -33l-10 -37l37 -27l-11 -34v16l-32 -32l-32 16l-1 16l-31 -33l-32 15l14 17l-37 26l27 37
l-37 26l27 37l-37 27l27 36l-37 27l11 34l19 14l-24 38l38 24l-25 38l38 25l-24 38l22 28v-16l32 31l32 -16l2 -16l32 31l32 -16l-18 -12l26 -37z" />
    <glyph glyph-name="s" unicode="s" horiz-adv-x="506" 
d="M465 321v1l-5 16l-32 -32l-32 33l-32 -32l-32 16v28l-44 9l-5 35l-33 16l-15 7l3 -45l-45 -4l4 -45l-33 -14l15 -20l39 23l23 -39l39 23l27 -24l53 -39l41 17l18 -41l42 17l23 -27l-28 -23l16 -42l-42 -16l16 -42l-28 -23l-20 8l-15 -43l-42 15l-15 -42h-36l-63 -8
l-20 32l-44 -10l-10 44l-44 -10l-10 44l-45 -10l-18 31l-16 35l4 -16l32 31l32 -16l4 -16l32 31l32 -16l-6 -17l45 -3l-3 -45l46 -2l9 -35h21l-6 45l45 6l-5 45l32 15l-31 30l-42 -18l-18 41l-41 -18l-18 42l-42 -18l-18 41l-41 -18l-24 27l-47 14l26 2l1 45l45 -2l2 46
l45 -2l2 45l45 -1l2 45l34 10l41 7h6l11 -26l44 11l11 -44l44 10l10 -44l44 10l19 -30z" />
    <glyph glyph-name="t" unicode="t" horiz-adv-x="418" 
d="M301 645v1l-31 -54l22 -39l-39 -23l23 -39l-24 -27l14 -21l39 22l22 -39l40 21l26 -24l-16 -49l32 -32l-16 -32l-12 10l-17 26l-42 -16l-15 43l-43 -15l-22 28l-19 -54l31 -34l-18 -31l1 -38l-12 -40l35 -28l-29 -35l35 -29l-28 -35l35 -29l-13 -33l-57 16l-32 -32
l-32 16l10 61l-35 28l28 35l-35 29l29 35l-36 29l13 33l17 19l-31 34l17 31l3 42l-51 -16l-8 -45l-35 -5l17 55l-32 32l17 32l47 -1l20 41l35 -5l16 -4l-18 42l42 18l-17 41l41 18l-17 41l27 24l48 1h25h25z" />
    <glyph glyph-name="u" unicode="u" horiz-adv-x="543" 
d="M199 474v1l-6 -42l-20 -45l28 -35l-35 -29l29 -35l-19 -30v-8v-8l-15 -8l36 -27l-11 -34v-29l44 -10l-9 -44l44 -9l4 -36l34 21l-7 44l45 8l-8 44l32 17l18 9l-27 37l21 29l2 35l11 43l-36 28l12 34l14 16l-36 27l11 34l43 1h22v-16l32 32l32 -15l-5 -46l39 -23l-8 -35
l-13 -41l34 -30l-14 -33l-16 -2l28 -35l-35 -28l28 -36l-35 -28l28 -35l-35 -29l28 -35l-19 -30l-46 -15h-2l-43 -1l-1 2l10 44l13 47l-9 14l-14 -43l-43 14l-14 -43l-43 14l-14 -43h-36l-61 9l-23 52l-45 4l4 45l-45 4l4 45l-45 4l-8 35l-3 43l23 34l-26 38l37 25l-25 38
l37 25l-26 37l22 29l5 -16l30 34l34 -29l30 34z" />
    <glyph glyph-name="v" unicode="v" horiz-adv-x="529" 
d="M168 466v1l-8 -57l36 -28l-28 -36l36 -27l-11 -34l-13 -9l42 -17l-17 -42l42 -17l-16 -42l42 -16l-2 -36l17 -1l-15 43l43 15l-15 42l43 15l-15 43l28 22l21 52l-29 35l34 29l-29 35l19 30h45l26 -16l32 32l32 -16l-21 -39l29 -35l-20 -30l-26 -28l20 -41l-41 -20l20 -40
l-41 -20l20 -41l-25 -25l-29 -6v-45h-45v-45h-45v-46l-34 -11l-1 22l-45 -4l-3 45l-45 -3l-14 33l-4 39l-44 12l12 44l-44 11l-2 36l5 48l-39 23l23 39l-39 23l8 35l-3 53v8l5 -15l28 35l34 -12l2 -16l32 32z" />
    <glyph glyph-name="w" unicode="w" horiz-adv-x="631" 
d="M176 468v1l-16 -2l28 -35l-36 -29l29 -35l-20 -30v-7l-9 -28l40 -23l-23 -39l40 -22l-23 -40l40 -22l-7 -35l41 41l-12 43l44 12l-13 44l30 20l16 -17l12 -48l44 -10l-9 -44l44 -9l4 -36l23 26l-22 39l39 23l-23 39l39 23l-23 39l24 27l14 26l-35 29l13 33l-10 44l18 -16
l32 32l32 -16h41l-16 -4l39 -24l-25 -38l39 -24l-9 -35l1 -32l-30 -52l23 -39l-39 -23l23 -39l-23 -27l-15 8l-3 -45l-45 3l-3 -46l-45 3l-3 -45l-35 -9l5 18h-45v45l-45 1l-11 34l-21 1v-45l-45 -1l1 -45l-34 -12l5 17l-45 -3l-3 45l-46 -2l-2 45l-46 -3l-13 33l-1 60
l-40 21l22 40l-40 22l6 35l26 34l-23 39l39 23l-23 39l24 27l58 1z" />
    <glyph glyph-name="x" unicode="x" 
d="M16 472v1l63 -2l30 1h32v-2v-2l-15 -6l37 -26l-10 -34l21 -48l45 -3l-2 -45l45 -2l9 -35l46 45l-10 44l44 10l-10 44l30 19l12 43h41l18 -16l32 32l32 -16l-24 -8l8 -44l-44 -9l9 -44l-45 -9l9 -44l-45 -9l9 -44l-31 -18l16 -34l45 4l4 -45l45 5l15 -33l-9 -28l40 -21
l-21 -40l39 -22l-6 -35l-4 16l-32 -32l-32 16h-54l-16 61l-44 12l12 44l-43 12l12 43l-44 12l-2 36l-30 -15l7 -45l-44 -7l7 -45l-44 -8l8 -44l-32 -17l3 -35l-60 19l-34 -30l-31 18v8l26 10l-9 44l45 8l-8 45l44 8l-8 45l44 8l-8 45l31 17l-11 34h-45v45h-45v45h-46l-11 34
l-8 46z" />
    <glyph glyph-name="y" unicode="y" 
d="M227 472v1l-19 -9l23 -39l-39 -23l23 -39l-39 -23l23 -39l-23 -27l11 -62l42 -16l-16 -42l43 -16l-16 -42l42 -16l-1 -36l17 -4l-10 44l44 10l-10 45l44 9l-10 45l31 18l10 58v10l15 7l-40 22l22 39l-39 22l22 40l-40 22l7 35h40l21 -1l60 1l-5 -27l42 -15l-1 -36
l-12 -26l37 -27l-27 -36l37 -27l-11 -34v-8v-8v-5v-6l-24 -30l24 -39l-39 -23l23 -39l-23 -27l-36 -21l6 -45l-45 -6l6 -45l-32 -16l-45 -12l-9 -44l-44 8l-9 -44l-35 -5l-41 3l-20 -40l-40 20l-21 -40l-35 5l-8 51l51 11l12 43l36 2l42 18l1 45l46 -1l1 46l34 10l-55 35
l-41 -20l-20 40l-41 -20l-25 25l-13 55l-43 12l12 43l-44 12l-2 36l-2 30l29 40l-21 40l40 21l-21 40l40 21l-21 40l25 26l1 -16l32 32l32 -32l32 32z" />
    <glyph glyph-name="z" unicode="z" horiz-adv-x="518" 
d="M475 440v1l-41 -17l-1 -45l-45 1l-1 -45l-46 1l-1 -46l-34 -10l-33 -27l13 -43l-44 -13l13 -43l-43 -13l12 -44l-29 -20l-2 -16l37 27l29 -20l38 -4l19 41l41 -19l19 40l36 -4l13 -11l12 44l36 2l-16 -7l33 -32l-16 -32v-3l-16 -8l33 -32l-16 -32l-18 14l-27 -36l-36 27
l-28 -35l-36 27l-27 -36l-34 12l-51 21l-35 -28l-29 35l-35 -29l-29 35l-35 -28l-30 19l33 32l-15 42l42 16l-15 42l43 15l-15 43l28 22l36 16l-3 46l45 2l-3 46l46 2l-3 46l33 13l-36 6l-19 11l-21 -40l-40 22l-21 -40l-40 22l-22 -40l-35 6l2 52l2 53l14 -14l28 35l36 -28
l28 36l35 -28l28 35l34 -12l32 -20l36 28l28 -36l36 28l28 -36l35 28z" />
    <glyph glyph-name="braceleft" unicode="{" horiz-adv-x="361" 
d="M23 166l14 35l16 -2l41 41l-12 44l29 20v4l16 23l-32 32l16 32l23 41l-26 37l21 29l10 13l41 1l16 42l36 -2l26 1l23 -2h26l12 1h5l-21 -31l-37 -22l5 -45l-44 -6l5 -44l-32 -16l-1 -55v-8l1 -19v-20v-7l-38 -33l11 -44l-30 -19l14 -62l43 -14v-36v-22l-1 -19v-11l1 -56
l5 -31l45 -4l-4 -45l45 -4l8 -35l23 2l-19 -32l-28 4l-23 -2h-12l10 13l-46 3l3 45l-46 2l3 45l-45 3l-10 34l16 63l-32 32l16 32l-2 32l-45 8l-5 35z" />
    <glyph glyph-name="bar" unicode="|" horiz-adv-x="158" 
d="M47 557h62l-16 -58l32 -32l-32 -32l32 -32l-32 -32l32 -32l-32 -32l32 -32l-32 -32l32 -32l-32 -32l32 -32l-32 -32l32 -32l-32 -32l32 -32l-32 -32l32 -32l-32 -32l32 -32l-16 -32h-62l16 58l-32 32l32 32l-32 32l32 32l-32 32l32 32l-32 32l32 32l-32 32l32 32l-32 32
l32 32l-32 32l32 32l-32 32l32 32l-32 32l32 32l-32 32z" />
    <glyph glyph-name="braceright" unicode="}" horiz-adv-x="395" 
d="M346 166l-24 2l-30 -17l10 -45l-31 -18v-32l2 -36v-57l-55 -37l3 -45l-45 -3l2 -45l-33 -13h-12l-26 2h-3l-22 -4l-21 32l25 -2l29 10l-5 45l45 4l-5 45l33 15l2 33v17l-1 17v24l-1 26v12l37 28l-11 44l31 19l-13 57l-43 13l-1 36v14l1 28v29l-21 61l-44 10l9 44l-44 9
l-4 36l-21 33l7 -1l8 -1l24 -1l29 3h23l-11 -12l45 -5l-5 -45l45 -5l-5 -45l45 -5l7 -35v-8v-5v-6l-16 -21l32 -32l-16 -32v-19l12 -42l45 -7l6 -35l27 3z" />
    <glyph glyph-name="asciitilde" unicode="~" horiz-adv-x="404" 
d="M314 556v1l18 -18l-8 -6l-15 9l-11 -43l-44 11l-11 -44l-36 -3l-35 28l-40 -21l-26 25l-12 12l-15 -42l-36 1l-18 18l36 35l39 4l12 43l36 2l30 -10l31 -19l43 -14l12 -12l14 43h36z" />
    <glyph glyph-name="FLW160" unicode="&#xa0;" horiz-adv-x="133" 
 />
    <glyph glyph-name="Acircumflex" unicode="&#x2018;" horiz-adv-x="213" 
d="M123 572l4 -62l40 -21l-5 -35l-6 16l-32 -31l-32 16l-28 51l8 18l-44 10l-3 36l34 -15l32 32z" />
    <glyph glyph-name="Ecircumflex" unicode="&#x2019;" horiz-adv-x="146" 
d="M37 553l8 -15l26 38l34 -10l-16 -15l32 -32l-32 -32l32 -32l-32 -32l32 -32l-32 -32l32 -32l-16 -32l-63 -8l-11 -1v19l17 24l-30 34l34 30l-31 34l18 31l16 3l-32 32l16 32z" />
    </font>
</defs>
</svg>
